<svg xmlns="http://www.w3.org/2000/svg" width="20.232" height="18.34" viewBox="0 0 20.232 18.34">
  <g id="noun_Favorite_1481179" transform="translate(-13.657 -17)">
    <g id="Group" transform="translate(13.657 17)">
      <path id="Compound_Path" data-name="Compound Path" d="M33.746,22.179h0c-.64-3.119-2.9-5.151-5.82-5.151a7.852,7.852,0,0,0-4.149,1.337A7.825,7.825,0,0,0,19.6,17a5.881,5.881,0,0,0-5.792,5.179C12.973,26.5,15.535,32.2,23.136,35.211a1.726,1.726,0,0,0,1.309,0C32.019,32.148,34.553,26.44,33.746,22.179ZM23.777,33.095c-6.265-2.562-8.437-7.1-7.8-10.5a3.705,3.705,0,0,1,3.62-3.369,6.086,6.086,0,0,1,3.508,1.364,1.114,1.114,0,0,0,1.337,0,6.081,6.081,0,0,1,3.481-1.364,3.743,3.743,0,0,1,3.62,3.341C32.186,25.966,30.042,30.477,23.777,33.095Z" transform="translate(-13.657 -17)" fill="#bbb"/>
    </g>
  </g>
</svg>
