<svg xmlns="http://www.w3.org/2000/svg" width="51.298" height="33.962" viewBox="0 0 51.298 33.962">
  <g id="Group_107" data-name="Group 107" transform="translate(-24.017 -184.386)">
    <g id="Group_89" data-name="Group 89" transform="translate(24.017 188.768)">
      <ellipse id="Ellipse_11" data-name="Ellipse 11" cx="25.649" cy="13.643" rx="25.649" ry="13.643" transform="translate(0 2.294)" fill="#bf6122"/>
      <rect id="Rectangle_23" data-name="Rectangle 23" width="51.276" height="3.346" transform="translate(0.021 13.161)" fill="#bf6122"/>
      <ellipse id="Ellipse_12" data-name="Ellipse 12" cx="25.649" cy="13.643" rx="25.649" ry="13.643" fill="#ed9051"/>
      <g id="Group_88" data-name="Group 88" transform="translate(2.171 1.421)">
        <path id="Path_185" data-name="Path 185" d="M51.323,218.412c-12.932,0-23.453-5.322-23.453-11.865s10.521-11.864,23.453-11.864S74.777,200,74.777,206.547,64.256,218.412,51.323,218.412Zm0-23.156c-12.616,0-22.88,5.066-22.88,11.291s10.264,11.291,22.88,11.291,22.88-5.065,22.88-11.291S63.939,195.256,51.323,195.256Z" transform="translate(-27.87 -194.683)" fill="#bf6122"/>
      </g>
    </g>
    <g id="Group_90" data-name="Group 90" transform="translate(36.355 185.989)">
      <path id="Path_186" data-name="Path 186" d="M47.307,187.23l-1.4,6.72,5.271,1.059.636-6.835Z" transform="translate(-45.911 -187.23)" fill="#ffd364"/>
      <path id="Path_187" data-name="Path 187" d="M49.1,190.153l-1.054.328.78,1Z" transform="translate(-46.842 -188.506)" fill="#71aa21"/>
      <path id="Path_188" data-name="Path 188" d="M55.148,195.881l-.812.551.517,1.185,1.107-.944Z" transform="translate(-49.589 -191.006)" fill="#71aa21"/>
    </g>
    <g id="Group_91" data-name="Group 91" transform="translate(41.193 184.386)">
      <path id="Path_189" data-name="Path 189" d="M54.5,186.349l2.93,6.206,4.846-2.328-3.606-5.841Z" transform="translate(-54.496 -184.386)" fill="#ffd364"/>
      <path id="Path_190" data-name="Path 190" d="M56.974,189.285l-.644.9,1.227.333Z" transform="translate(-55.297 -186.524)" fill="#71aa21"/>
      <path id="Path_191" data-name="Path 191" d="M65.358,190.329l-.317.929,1.126.635.316-1.42Z" transform="translate(-59.099 -186.98)" fill="#71aa21"/>
    </g>
    <g id="Group_92" data-name="Group 92" transform="translate(28.311 189.312)">
      <path id="Path_192" data-name="Path 192" d="M31.636,202.9s1.721,2.66,5.919,2.05c3.06-.445,4.871-3.928,4.871-3.928Z" transform="translate(-31.636 -196.571)" fill="#d37c00"/>
      <path id="Path_193" data-name="Path 193" d="M34.7,194.84l-3.06,5.359a4.889,4.889,0,0,0,4.574,2.4c2.615-.1,3.953-2.842,3.953-2.842Z" transform="translate(-31.636 -193.875)" fill="#ffd364"/>
      <path id="Path_194" data-name="Path 194" d="M37.067,194.093l2.391-.965,5.338,4.446-2.264,1.433Z" transform="translate(-34.007 -193.128)" fill="#f9bd3a"/>
      <path id="Path_195" data-name="Path 195" d="M33.9,202v1.755l1.191-.446Z" transform="translate(-32.623 -197.001)" fill="#71aa21"/>
      <path id="Path_196" data-name="Path 196" d="M42.9,199.29l-.812.551.517,1.185,1.107-.943Z" transform="translate(-36.199 -195.817)" fill="#71aa21"/>
    </g>
    <g id="Group_93" data-name="Group 93" transform="translate(41.899 186.76)">
      <path id="Path_197" data-name="Path 197" d="M55.75,198.366s1.72,2.66,5.919,2.05c3.06-.444,4.871-3.928,4.871-3.928Z" transform="translate(-55.75 -192.042)" fill="#d37c00"/>
      <path id="Path_198" data-name="Path 198" d="M58.81,190.311l-3.06,5.359a4.89,4.89,0,0,0,4.574,2.4c2.615-.1,3.953-2.842,3.953-2.842Z" transform="translate(-55.75 -189.346)" fill="#ffe3a6"/>
      <path id="Path_199" data-name="Path 199" d="M61.181,189.564l2.391-.965,5.338,4.446-2.264,1.432Z" transform="translate(-58.121 -188.599)" fill="#f9bd3a"/>
      <path id="Path_200" data-name="Path 200" d="M58.011,197.473v1.755l1.191-.446Z" transform="translate(-56.737 -192.472)" fill="#71aa21"/>
      <path id="Path_201" data-name="Path 201" d="M67.015,194.762l-.812.551.517,1.185,1.107-.944Z" transform="translate(-60.313 -191.289)" fill="#71aa21"/>
    </g>
    <g id="Group_94" data-name="Group 94" transform="translate(36.921 190.249)">
      <path id="Path_202" data-name="Path 202" d="M46.942,199.632s-.063,3.167,3.758,5.011c2.784,1.345,6.235-.529,6.235-.529Z" transform="translate(-46.927 -196.904)" fill="#d37c00"/>
      <path id="Path_203" data-name="Path 203" d="M52.466,194.791l-5.535,2.728a4.889,4.889,0,0,0,2.449,4.545c2.225,1.377,4.866-.143,4.866-.143Z" transform="translate(-46.916 -194.791)" fill="#ffe3a6"/>
      <path id="Path_204" data-name="Path 204" d="M56.765,194.79l2.522.539L61.223,202l-2.678-.08Z" transform="translate(-51.215 -194.79)" fill="#f9bd3a"/>
      <path id="Path_205" data-name="Path 205" d="M49.369,198.951l-.982,1.454,1.236.3Z" transform="translate(-47.558 -196.607)" fill="#71aa21"/>
      <path id="Path_206" data-name="Path 206" d="M58.689,202.1l-.981,0-.234,1.271,1.445-.163Z" transform="translate(-51.524 -197.979)" fill="#71aa21"/>
    </g>
    <g id="Group_95" data-name="Group 95" transform="translate(50.616 186.324)">
      <path id="Path_207" data-name="Path 207" d="M71.219,192.519c.128.063.355,2.769.751,3.373a3.31,3.31,0,0,0,3.185,1.532,12.923,12.923,0,0,0,2.371-.22l-.164-3.231Z" transform="translate(-71.219 -189.874)" fill="#d37c00"/>
      <path id="Path_208" data-name="Path 208" d="M76.925,187.825l-5.479,1.536s-.991,1.8,1.16,3.283a6.336,6.336,0,0,0,4.9.668Z" transform="translate(-71.219 -187.825)" fill="#ffd364"/>
      <path id="Path_209" data-name="Path 209" d="M72.936,191.408l-.962.071.294.765Z" transform="translate(-71.548 -189.389)" fill="#71aa21"/>
      <path id="Path_210" data-name="Path 210" d="M78.2,192.888v1.247l1.053-.623Z" transform="translate(-74.268 -190.035)" fill="#71aa21"/>
    </g>
    <g id="Group_96" data-name="Group 96" transform="translate(45.611 191.276)">
      <path id="Path_211" data-name="Path 211" d="M80.095,202.212a6.4,6.4,0,0,0-3.255-4,12.843,12.843,0,0,0-5.191-1.6c-3-.107-7.689,1.2-8.847,4.47-.1.9.108,2.465,1.931,4.349,2.875,2.97,6.924,3.912,8.369,3.476a12.413,12.413,0,0,0,1.548-.636,1.652,1.652,0,0,0,.194-.636A4.623,4.623,0,0,0,80.095,202.212Z" transform="translate(-62.531 -196.612)" fill="#ed2b2b"/>
      <path id="Path_212" data-name="Path 212" d="M64.538,208.9c-1.824-1.884-2.026-3.453-1.931-4.349a4.468,4.468,0,0,0-.209.789c-.636,3.9,3.748,6.279,6.854,7.205,1.507.45,4.015.913,5.1-.6a1.569,1.569,0,0,0,.1-.2,12.415,12.415,0,0,1-1.548.636C71.462,212.816,67.413,211.875,64.538,208.9Z" transform="translate(-62.336 -200.079)" fill="#d32020"/>
      <path id="Path_213" data-name="Path 213" d="M77.694,209.45s.066-1.361-2.324-2.338c-2.634-1.077-4.519-1.676-5.449-2.607-1.171-1.174-.641-2.588,1.519-3.289a9.081,9.081,0,0,1,6.06.114c1.5.666,2.332,1.479,2.315,2.626-.012.842-.757,1.819-2.72,1.578a9.737,9.737,0,0,1-4.333-1.555c-.5-.462-.793-.845-.224-1.243a2.789,2.789,0,0,1,3.025.16c.154.176.061.445-.157.914-.239.516-.008,1.07,1.8,1.212,1.936.151,2.892-1.4,1.362-2.494a7.234,7.234,0,0,0-4.875-1.313c-1.87.007-4.027,1.214-3.752,2.114.358,1.174,1.458,1.593,3.226,2.4,1.7.774,3.441,1.232,4.329,2.243A1.617,1.617,0,0,1,77.694,209.45Z" transform="translate(-65.382 -198.421)" fill="#d32020"/>
      <path id="Path_214" data-name="Path 214" d="M77.612,212.543c-.512-.209-2.052-.895-2.183-.358-.079.326.823.733,1.043.841.643.316,2.26,1.368,2.748.843C79.412,213.663,79.238,213.206,77.612,212.543Z" transform="translate(-68.049 -203.322)" fill="#ff4343"/>
      <path id="Path_215" data-name="Path 215" d="M75.681,198.519c-2.309-1.357-6.71-.408-8.195,1.862-1.421,2.172.97,4.855,3.226,5a.02.02,0,0,0,.01-.038,8.048,8.048,0,0,1-2.424-1.637c-1.228-1.409-.719-3.05.764-4.019a9.094,9.094,0,0,1,6.584-1.092C75.693,198.607,75.728,198.547,75.681,198.519Z" transform="translate(-64.397 -197.171)" fill="#ff4343"/>
      <path id="Path_216" data-name="Path 216" d="M87.618,205.787a.34.34,0,0,0-.332.252c-.256,1.82-.669,2.024-1.475,2.194-.541.114-1.358-.239-1.843,0-.325.161-.144.314.077.389,1.534.514,3.645.353,4.013-1.576C88.119,206.724,88.164,205.758,87.618,205.787Z" transform="translate(-71.7 -200.616)" fill="#ff4343"/>
    </g>
    <g id="Group_97" data-name="Group 97" transform="translate(54.75 187.581)">
      <path id="Path_217" data-name="Path 217" d="M96.273,197.829a6.4,6.4,0,0,0-2.255-4.636,12.855,12.855,0,0,0-4.689-2.74c-2.9-.79-7.759-.589-9.635,2.33-.3.852-.459,2.425.886,4.676,2.12,3.549,5.847,5.391,7.353,5.3a12.6,12.6,0,0,0,1.652-.265,1.643,1.643,0,0,0,.334-.576A4.623,4.623,0,0,0,96.273,197.829Z" transform="translate(-78.963 -190.055)" fill="#ed2b2b"/>
      <path id="Path_218" data-name="Path 218" d="M80.173,199.57c-1.345-2.251-1.183-3.824-.886-4.676a4.519,4.519,0,0,0-.384.72c-1.511,3.654,2.214,6.969,5.026,8.581,1.365.782,3.7,1.807,5.1.578a1.611,1.611,0,0,0,.147-.171,12.6,12.6,0,0,1-1.652.265C86.019,204.961,82.293,203.119,80.173,199.57Z" transform="translate(-78.555 -192.167)" fill="#d32020"/>
      <path id="Path_219" data-name="Path 219" d="M92.751,203.759s.375-1.309-1.728-2.807c-2.318-1.651-4.016-2.664-4.708-3.784-.872-1.411-.033-2.666,2.231-2.854a9.08,9.08,0,0,1,5.873,1.5c1.31.992,1.932,1.973,1.653,3.086-.2.817-1.152,1.6-3.009.915a9.742,9.742,0,0,1-3.862-2.5c-.378-.563-.58-1,.065-1.262a2.79,2.79,0,0,1,2.908.847c.11.207-.042.447-.362.854-.351.447-.252,1.04,1.48,1.592,1.849.589,3.135-.7,1.9-2.117a7.233,7.233,0,0,0-4.446-2.393c-1.822-.42-4.2.261-4.136,1.2.081,1.225,1.055,1.883,2.593,3.072,1.477,1.142,3.069,1.986,3.7,3.173A1.615,1.615,0,0,1,92.751,203.759Z" transform="translate(-81.795 -191.9)" fill="#d32020"/>
      <path id="Path_220" data-name="Path 220" d="M92.385,206.1c-.45-.32-1.793-1.34-2.043-.847-.151.3.634.9.823,1.058.553.454,1.888,1.848,2.482,1.448C93.882,207.6,93.817,207.12,92.385,206.1Z" transform="translate(-83.691 -196.632)" fill="#ff4343"/>
      <path id="Path_221" data-name="Path 221" d="M93.014,192.854c-1.938-1.849-6.439-1.932-8.4-.06-1.879,1.79-.165,4.948,2,5.609a.021.021,0,0,0,.019-.034,8.047,8.047,0,0,1-1.985-2.148c-.873-1.653,0-3.134,1.662-3.738a9.1,9.1,0,0,1,6.659.442C93.006,192.942,93.054,192.891,93.014,192.854Z" transform="translate(-80.846 -190.654)" fill="#ff4343"/>
      <path id="Path_222" data-name="Path 222" d="M103.251,202.436a.34.34,0,0,0-.381.17c-.666,1.713-1.114,1.818-1.937,1.8-.553-.013-1.268-.543-1.795-.422-.353.082-.212.273-.014.4,1.376.852,3.468,1.177,4.267-.617C103.524,203.463,103.788,202.532,103.251,202.436Z" transform="translate(-87.444 -195.456)" fill="#ff4343"/>
    </g>
    <g id="Group_98" data-name="Group 98" transform="translate(41.898 194.611)">
      <path id="Path_223" data-name="Path 223" d="M55.747,207.225c.128.063.355,2.768.751,3.373a3.31,3.31,0,0,0,3.185,1.531,12.945,12.945,0,0,0,2.37-.219l-.163-3.231Z" transform="translate(-55.747 -204.58)" fill="#d37c00"/>
      <path id="Path_224" data-name="Path 224" d="M61.453,202.531l-5.478,1.536s-.991,1.8,1.16,3.283a6.333,6.333,0,0,0,4.9.668Z" transform="translate(-55.747 -202.531)" fill="#ffd364"/>
      <path id="Path_225" data-name="Path 225" d="M57.464,206.114l-.963.071.294.765Z" transform="translate(-56.076 -204.095)" fill="#71aa21"/>
      <path id="Path_226" data-name="Path 226" d="M62.732,207.593v1.247l1.053-.623Z" transform="translate(-58.796 -204.741)" fill="#71aa21"/>
    </g>
    <g id="Group_100" data-name="Group 100" transform="translate(33.289 194.966)">
      <path id="Path_227" data-name="Path 227" d="M45.722,210.753a15.051,15.051,0,0,0,7.32,3.213,9.108,9.108,0,0,0,3.9.155c.914-.245,1.644-1.068,2.584-1.2a1.334,1.334,0,0,1,.783.108,4.934,4.934,0,0,0-.249-1.652c-.786-2.526-7.009-3.107-9.936-4.9a35.462,35.462,0,0,0-5.889-3.192,2.237,2.237,0,0,0-2.514.9c.178,1.532.308,3.009,1.4,4.232A22.6,22.6,0,0,0,45.722,210.753Z" transform="translate(-41.015 -203.16)" fill="#ff871a"/>
      <path id="Path_228" data-name="Path 228" d="M40.562,207.853c.574,2.6,2.531,4.662,6.831,6.725,4.185,2.007,6.935,2.367,10.3,1.515a2.326,2.326,0,0,0,2.07-2.264,1.334,1.334,0,0,0-.783-.108c-.939.13-1.67.952-2.584,1.2a9.108,9.108,0,0,1-3.9-.155,15.051,15.051,0,0,1-7.32-3.213,22.6,22.6,0,0,1-2.6-2.33c-1.095-1.223-1.226-2.7-1.4-4.232A3.363,3.363,0,0,0,40.562,207.853Z" transform="translate(-40.471 -203.958)" fill="#e2660a"/>
      <g id="Group_99" data-name="Group 99" transform="translate(2.958 1.282)">
        <path id="Path_229" data-name="Path 229" d="M50.022,207.064a5.043,5.043,0,0,0-1.959.423,9.108,9.108,0,0,0-2.342,1.577,16.873,16.873,0,0,1,2.39-.984c1.026-.3,2.62-.6,2.62-.6Z" transform="translate(-45.721 -206.147)" fill="#ff9945"/>
        <path id="Path_230" data-name="Path 230" d="M53.583,209.23a5.4,5.4,0,0,0-1.987.445,9.108,9.108,0,0,0-2.342,1.577,16.876,16.876,0,0,1,2.39-.984c1.026-.3,2.476-.756,2.476-.756Z" transform="translate(-47.263 -207.092)" fill="#ff9945"/>
        <path id="Path_231" data-name="Path 231" d="M50.358,205.436a10.368,10.368,0,0,0-.2,2.557c.034.981.264,2.511.264,2.511l.419-4.8Z" transform="translate(-47.655 -205.436)" fill="#ff9945"/>
        <path id="Path_232" data-name="Path 232" d="M54.12,207.588A14.731,14.731,0,0,0,54,210.176c.034.981.264,2.51.264,2.51l.419-4.756Z" transform="translate(-49.331 -206.375)" fill="#ff9945"/>
        <path id="Path_233" data-name="Path 233" d="M57.283,210.9a10.494,10.494,0,0,0-2.124.68,9.078,9.078,0,0,0-2.342,1.577,16.781,16.781,0,0,1,2.389-.984c1.026-.3,2.747-1.043,2.747-1.043Z" transform="translate(-48.818 -207.819)" fill="#ff9945"/>
        <path id="Path_234" data-name="Path 234" d="M57.683,209.671a14.76,14.76,0,0,0-.118,2.588c.034.981.264,2.51.264,2.51l.419-4.836Z" transform="translate(-50.886 -207.284)" fill="#ff9945"/>
        <path id="Path_235" data-name="Path 235" d="M61.179,212.191a20.018,20.018,0,0,0-2.172.848,9.091,9.091,0,0,0-2.342,1.577,16.8,16.8,0,0,1,2.39-.984,27.1,27.1,0,0,0,2.882-1.2Z" transform="translate(-50.498 -208.384)" fill="#ff9945"/>
        <path id="Path_236" data-name="Path 236" d="M61.468,211.165a21.933,21.933,0,0,0-.057,2.643c.034.981.264,2.51.264,2.51l.384-4.955Z" transform="translate(-52.563 -207.937)" fill="#ff9945"/>
        <path id="Path_237" data-name="Path 237" d="M64.926,213.485s-1.387.5-2.261.932a9.1,9.1,0,0,0-2.342,1.577,16.874,16.874,0,0,1,2.39-.984,28.136,28.136,0,0,0,2.949-1.228Z" transform="translate(-52.094 -208.949)" fill="#ff9945"/>
        <path id="Path_238" data-name="Path 238" d="M65.4,212.421a21.934,21.934,0,0,0-.057,2.643c.034.981.264,2.511.264,2.511l.384-4.956Z" transform="translate(-54.277 -208.485)" fill="#ff9945"/>
      </g>
    </g>
    <g id="Group_102" data-name="Group 102" transform="translate(26.969 196.942)">
      <path id="Path_239" data-name="Path 239" d="M34.507,214.259a15.054,15.054,0,0,0,7.32,3.213,9.108,9.108,0,0,0,3.9.155c.914-.245,1.644-1.068,2.584-1.2a1.331,1.331,0,0,1,.783.108,4.937,4.937,0,0,0-.25-1.652c-.786-2.527-7.008-3.108-9.935-4.9a35.441,35.441,0,0,0-5.889-3.192,2.237,2.237,0,0,0-2.514.9c.177,1.532.308,3.009,1.4,4.233A22.587,22.587,0,0,0,34.507,214.259Z" transform="translate(-29.8 -206.666)" fill="#ff7e27"/>
      <path id="Path_240" data-name="Path 240" d="M29.347,211.358c.574,2.6,2.531,4.663,6.831,6.725,4.185,2.007,7.383,1.622,10.3,1.515a2.145,2.145,0,0,0,2.07-2.264,1.331,1.331,0,0,0-.783-.108c-.939.13-1.67.952-2.584,1.2a9.108,9.108,0,0,1-3.9-.155,15.053,15.053,0,0,1-7.32-3.213,22.589,22.589,0,0,1-2.6-2.33c-1.1-1.223-1.226-2.7-1.4-4.233A3.362,3.362,0,0,0,29.347,211.358Z" transform="translate(-29.256 -207.464)" fill="#e2660a"/>
      <g id="Group_101" data-name="Group 101" transform="translate(2.959 1.282)">
        <path id="Path_241" data-name="Path 241" d="M38.806,210.57a5.041,5.041,0,0,0-1.958.423,9.077,9.077,0,0,0-2.342,1.577,16.769,16.769,0,0,1,2.39-.984c1.026-.3,2.62-.6,2.62-.6Z" transform="translate(-34.506 -209.652)" fill="#ff9945"/>
        <path id="Path_242" data-name="Path 242" d="M42.367,212.735a5.392,5.392,0,0,0-1.986.445,9.1,9.1,0,0,0-2.342,1.577,16.843,16.843,0,0,1,2.39-.984c1.026-.3,2.476-.757,2.476-.757Z" transform="translate(-36.048 -210.597)" fill="#ff9945"/>
        <path id="Path_243" data-name="Path 243" d="M39.143,208.941a10.342,10.342,0,0,0-.2,2.558c.034.981.264,2.51.264,2.51l.42-4.8Z" transform="translate(-36.44 -208.941)" fill="#ff9945"/>
        <path id="Path_244" data-name="Path 244" d="M42.9,211.094a14.75,14.75,0,0,0-.118,2.587c.034.981.264,2.511.264,2.511l.419-4.757Z" transform="translate(-38.116 -209.881)" fill="#ff9945"/>
        <path id="Path_245" data-name="Path 245" d="M46.068,214.4a10.535,10.535,0,0,0-2.125.68,9.108,9.108,0,0,0-2.342,1.577,16.832,16.832,0,0,1,2.39-.983c1.026-.3,2.747-1.043,2.747-1.043Z" transform="translate(-37.603 -211.324)" fill="#ff9945"/>
        <path id="Path_246" data-name="Path 246" d="M46.467,213.177a14.731,14.731,0,0,0-.117,2.588c.034.981.264,2.511.264,2.511l.42-4.836Z" transform="translate(-39.671 -210.79)" fill="#ff9945"/>
        <path id="Path_247" data-name="Path 247" d="M49.963,215.7a20.105,20.105,0,0,0-2.171.847,9.1,9.1,0,0,0-2.342,1.577,16.854,16.854,0,0,1,2.389-.984,27.01,27.01,0,0,0,2.882-1.2Z" transform="translate(-39.283 -211.89)" fill="#ff9945"/>
        <path id="Path_248" data-name="Path 248" d="M50.252,214.671a21.993,21.993,0,0,0-.057,2.643c.034.981.264,2.51.264,2.51l.384-4.955Z" transform="translate(-41.348 -211.442)" fill="#ff9945"/>
        <path id="Path_249" data-name="Path 249" d="M53.71,216.991s-1.386.5-2.261.932a9.091,9.091,0,0,0-2.342,1.577,16.876,16.876,0,0,1,2.39-.984,28.137,28.137,0,0,0,2.949-1.228Z" transform="translate(-40.879 -212.455)" fill="#ff9945"/>
        <path id="Path_250" data-name="Path 250" d="M54.18,215.927a21.994,21.994,0,0,0-.057,2.643c.034.981.264,2.51.264,2.51l.384-4.955Z" transform="translate(-43.062 -211.99)" fill="#ff9945"/>
      </g>
    </g>
    <g id="Group_104" data-name="Group 104" transform="translate(42.517 200.742)">
      <path id="Path_251" data-name="Path 251" d="M61.021,217.641c-5.015-.416-4.777,3.385-3.082,4.448,1.543.967,7.094.631,10.933.148s10.959-2.915,12.094-4.891c1.256-2.187.708-3.595-1.293-3.91-1.488-.234-3.836,1.147-6.971,2.536A23.53,23.53,0,0,1,61.021,217.641Z" transform="translate(-56.846 -213.41)" fill="#f73131"/>
      <g id="Group_103" data-name="Group 103" transform="translate(4.778 1.297)">
        <path id="Path_252" data-name="Path 252" d="M65.324,221a5.661,5.661,0,0,1,1.343,1.325c.491.745,1.028,1.72,1.028,1.72a18.645,18.645,0,0,0-.752-2.051,4.466,4.466,0,0,0-.6-.944Z" transform="translate(-65.324 -218.019)" fill="#d61818"/>
        <path id="Path_253" data-name="Path 253" d="M68.653,221.1A5.666,5.666,0,0,1,70,222.428c.491.746,1.028,1.487,1.028,1.487s-.43-1.171-.752-1.817a3.108,3.108,0,0,0-.777-.995Z" transform="translate(-66.777 -218.065)" fill="#d61818"/>
        <path id="Path_254" data-name="Path 254" d="M71.982,220.972a5.493,5.493,0,0,1,1.343,1.314c.491.745,1.028,1.486,1.028,1.486s-.43-1.171-.752-1.817a3.206,3.206,0,0,0-.868-1.042Z" transform="translate(-68.23 -217.982)" fill="#d61818"/>
        <path id="Path_255" data-name="Path 255" d="M75.21,220.618a5.46,5.46,0,0,1,1.328,1.306,6.916,6.916,0,0,0,1.076,1.259s-.478-.944-.8-1.589a3.151,3.151,0,0,0-.977-1.071Z" transform="translate(-69.639 -217.811)" fill="#d61818"/>
        <path id="Path_256" data-name="Path 256" d="M78.843,219.881a4.465,4.465,0,0,1,1.262,1.21,7.621,7.621,0,0,0,1.023,1.243,5.706,5.706,0,0,0-.649-1.566,3.849,3.849,0,0,0-1.021-1.031Z" transform="translate(-71.225 -217.469)" fill="#d61818"/>
        <path id="Path_257" data-name="Path 257" d="M82.734,218.714a4.675,4.675,0,0,1,1.221,1.213,7.621,7.621,0,0,0,1.023,1.243,5.714,5.714,0,0,0-.649-1.566,4.131,4.131,0,0,0-1.1-1.077Z" transform="translate(-72.923 -216.941)" fill="#d61818"/>
        <path id="Path_258" data-name="Path 258" d="M86.205,217.267a5.192,5.192,0,0,1,1.2,1.241,7.621,7.621,0,0,0,1.023,1.243,5.706,5.706,0,0,0-.649-1.566,4.166,4.166,0,0,0-1.182-1.1Z" transform="translate(-74.438 -216.312)" fill="#d61818"/>
        <path id="Path_259" data-name="Path 259" d="M89.131,215.892a5.189,5.189,0,0,1,1.2,1.242,7.621,7.621,0,0,0,1.023,1.243,5.706,5.706,0,0,0-.649-1.566,4.167,4.167,0,0,0-1.181-1.1Z" transform="translate(-75.715 -215.712)" fill="#d61818"/>
      </g>
    </g>
    <g id="Group_106" data-name="Group 106" transform="translate(38.52 202.692)">
      <path id="Path_260" data-name="Path 260" d="M59.626,227.788a45.1,45.1,0,0,0,10.255-1.024,24.866,24.866,0,0,0,8.712-3.774,9.976,9.976,0,0,0,3.1-3.21,4.894,4.894,0,0,0,.5-1.444,1.687,1.687,0,0,0-2.261-1.365c-1.367.406-2.858,2.278-4.141,2.917a26.67,26.67,0,0,1-5.908,1.764A76.462,76.462,0,0,1,58.8,223.393c-1.681.137-3.364.2-5.05.236a5.969,5.969,0,0,0-2.867.524,2.019,2.019,0,0,0-.876.922C51.591,228.421,56.466,227.79,59.626,227.788Z" transform="translate(-49.865 -216.871)" fill="#ff4343"/>
      <path id="Path_261" data-name="Path 261" d="M50.948,229c2.112,1.566,5.308,1.383,7.8,1.35a47.319,47.319,0,0,0,9.81-1.168,38.11,38.11,0,0,0,8.87-3c1.97-1,3.954-2.468,4.63-4.677a3.83,3.83,0,0,0,.029-2.032,4.894,4.894,0,0,1-.5,1.444,9.976,9.976,0,0,1-3.1,3.21,24.866,24.866,0,0,1-8.712,3.774,45.1,45.1,0,0,1-10.255,1.024c-3.161,0-8.036.633-9.615-2.713A2.421,2.421,0,0,0,50.948,229Z" transform="translate(-49.753 -218.006)" fill="#ed2b2b"/>
      <g id="Group_105" data-name="Group 105" transform="translate(3.232 2.135)">
        <path id="Path_262" data-name="Path 262" d="M55.487,228.863A8.618,8.618,0,0,1,58.1,230a11.907,11.907,0,0,1,2.342,1.873,4.349,4.349,0,0,0-1.556-2.088,5.967,5.967,0,0,0-2.192-.953Z" transform="translate(-55.487 -224.229)" fill="#d61818"/>
        <path id="Path_263" data-name="Path 263" d="M61.873,228.6a7.877,7.877,0,0,1,2.613,1.105,11.893,11.893,0,0,1,2.342,1.872,4.387,4.387,0,0,0-1.567-1.971,9.615,9.615,0,0,0-2.141-1.116Z" transform="translate(-58.274 -224.079)" fill="#d61818"/>
        <path id="Path_264" data-name="Path 264" d="M67.707,228.138a7.881,7.881,0,0,1,2.614,1.1,11.912,11.912,0,0,1,2.341,1.873,4.386,4.386,0,0,0-1.567-1.971,9.613,9.613,0,0,0-2.141-1.116Z" transform="translate(-60.821 -223.876)" fill="#d61818"/>
        <path id="Path_265" data-name="Path 265" d="M73.315,227.431a7.876,7.876,0,0,1,2.614,1.105,11.894,11.894,0,0,1,2.342,1.872,4.392,4.392,0,0,0-1.567-1.971,10.1,10.1,0,0,0-2.245-1.15Z" transform="translate(-63.268 -223.553)" fill="#d61818"/>
        <path id="Path_266" data-name="Path 266" d="M79.217,226.449a7.881,7.881,0,0,1,2.614,1.1,11.907,11.907,0,0,1,2.342,1.873,4.391,4.391,0,0,0-1.567-1.971,13.523,13.523,0,0,0-2.231-1.228Z" transform="translate(-65.845 -223.089)" fill="#d61818"/>
        <path id="Path_267" data-name="Path 267" d="M85.775,225.053a5.775,5.775,0,0,1,2.545.963,11.393,11.393,0,0,1,2.268,1.793,3.949,3.949,0,0,0-1.5-1.932,7.954,7.954,0,0,0-2.218-1.067Z" transform="translate(-68.707 -222.471)" fill="#d61818"/>
        <path id="Path_268" data-name="Path 268" d="M91.424,223.642a5.331,5.331,0,0,1,2.6.764,12.077,12.077,0,0,1,1.922,1.393,2.55,2.55,0,0,0-1.245-1.614,4.957,4.957,0,0,0-2.354-.836Z" transform="translate(-71.173 -221.834)" fill="#d61818"/>
        <path id="Path_269" data-name="Path 269" d="M97.091,221.066a9.8,9.8,0,0,1,2.171.755c.632.4,1.124.673,1.124.673a2.652,2.652,0,0,0-1.329-1.277,8.973,8.973,0,0,0-1.46-.557Z" transform="translate(-73.646 -220.66)" fill="#d61818"/>
      </g>
    </g>
  </g>
</svg>
