<svg xmlns="http://www.w3.org/2000/svg" width="15.586" height="14.129" viewBox="0 0 15.586 14.129">
  <g id="Group_2520" data-name="Group 2520" transform="translate(-139.43 -13.54)">
    <path id="Path_1233" data-name="Path 1233" d="M141.534,22.685l3.855,3.379,2.376.37,3.063-1.8,2.746-3.7V16.877l-2.746-1.954-3.432.634-3.221-.95-2.64.95-1,2.746.422,2.64Z" fill="#f02756" stroke="#f02756" stroke-width="1"/>
    <g id="noun_Favorite_1481179" transform="translate(139.43 13.54)">
      <g id="Group" transform="translate(0 0)">
        <path id="Compound_Path" data-name="Compound Path" d="M29.133,20.99h0a4.583,4.583,0,0,0-4.483-3.969,6.049,6.049,0,0,0-3.2,1.03A6.028,6.028,0,0,0,18.236,17a4.531,4.531,0,0,0-4.462,3.99c-.644,3.325,1.33,7.723,7.186,10.039a1.33,1.33,0,0,0,1.008,0C27.8,28.67,29.755,24.272,29.133,20.99ZM21.453,29.4c-4.827-1.974-6.5-5.47-6.007-8.087a2.855,2.855,0,0,1,2.789-2.6,4.688,4.688,0,0,1,2.7,1.051.858.858,0,0,0,1.03,0,4.685,4.685,0,0,1,2.681-1.051,2.884,2.884,0,0,1,2.789,2.574C27.932,23.907,26.28,27.383,21.453,29.4Z" transform="translate(-13.657 -17)" fill="#f02756"/>
      </g>
    </g>
  </g>
</svg>
