<svg xmlns="http://www.w3.org/2000/svg" width="19.442" height="22.193" viewBox="0 0 19.442 22.193">
  <g id="noun_notification_2184935" transform="translate(-23.5 -21)">
    <g id="Group_2507" data-name="Group 2507" transform="translate(23.5 21)">
      <g id="Group_2506" data-name="Group 2506">
        <path id="Path_1232" data-name="Path 1232" d="M33.221,21a2.934,2.934,0,0,1,2.931,2.794,7.522,7.522,0,0,1,4.589,6.927v4.226a2.384,2.384,0,0,1-.187,4.762H25.888a2.384,2.384,0,0,1-.187-4.762V30.721a7.522,7.522,0,0,1,4.589-6.927A2.935,2.935,0,0,1,33.221,21Zm-1.738,4.305a5.687,5.687,0,0,0-3.948,5.416v4.4a1.652,1.652,0,0,1-1.65,1.651.55.55,0,1,0,0,1.1H40.554a.55.55,0,1,0,0-1.1,1.649,1.649,0,0,1-1.65-1.651v-4.4a5.688,5.688,0,0,0-3.948-5.416l-.637-.2V23.932a1.1,1.1,0,0,0-2.2,0V25.1Zm-1.747,14.4H31.57a1.651,1.651,0,1,0,3.3,0h1.834a3.485,3.485,0,1,1-6.97,0Z" transform="translate(-23.5 -21)" fill="#20d0c4"/>
      </g>
    </g>
  </g>
</svg>
