<svg xmlns="http://www.w3.org/2000/svg" width="52.5" height="29.634" viewBox="0 0 52.5 29.634">
  <g id="Group_197" data-name="Group 197" transform="translate(-203.273 -13.775)">
    <g id="Group_171" data-name="Group 171" transform="translate(203.273 13.851)">
      <ellipse id="Ellipse_24" data-name="Ellipse 24" cx="26.25" cy="13.963" rx="26.25" ry="13.963" transform="translate(0 1.632)" fill="#a34843"/>
      <rect id="Rectangle_41" data-name="Rectangle 41" width="52.478" height="2.216" transform="translate(0.022 13.963)" fill="#a34843"/>
      <ellipse id="Ellipse_25" data-name="Ellipse 25" cx="26.25" cy="13.963" rx="26.25" ry="13.963" transform="translate(0 0)" fill="#c15f5f"/>
      <g id="Group_170" data-name="Group 170" transform="translate(2.222 1.454)">
        <path id="Path_666" data-name="Path 666" d="M232.1,41.38c-13.236,0-24-5.448-24-12.143s10.768-12.142,24-12.142,24,5.447,24,12.142S245.335,41.38,232.1,41.38Zm0-23.7c-12.912,0-23.416,5.184-23.416,11.556s10.5,11.556,23.416,11.556,23.416-5.184,23.416-11.556S245.011,17.682,232.1,17.682Z" transform="translate(-208.096 -17.095)" fill="#a34843"/>
      </g>
    </g>
    <g id="Group_172" data-name="Group 172" transform="translate(204.36 13.775)">
      <path id="Path_667" data-name="Path 667" d="M254.464,27.456a5.913,5.913,0,0,1,.944,3.255,7.685,7.685,0,0,1-2.162,5.914,24.867,24.867,0,0,1-8.048,4.9c-2.617,1.018-4.673.757-8.047,1.192-1.843.238-4.083.934-6.064.934a37.757,37.757,0,0,1-11.714-2.126c-2.616-.814-4.17-.834-7.341-2.771-1.592-.973-2.192-2.353-3.268-3.466a6.249,6.249,0,0,1-2-4.574,9.518,9.518,0,0,1,2.712-5.941,17.468,17.468,0,0,1,3.14-2.8,16.5,16.5,0,0,0-4.18,3.466,9.854,9.854,0,0,0-2.807,6.149A6.47,6.47,0,0,0,207.7,36.32c1.113,1.152,1.735,2.581,3.382,3.587,3.282,2.005,4.89,2.026,7.6,2.868a39.085,39.085,0,0,0,12.125,2.2c2.05,0,4.369-.721,6.276-.967,3.492-.45,5.621-.181,8.33-1.234a25.725,25.725,0,0,0,8.33-5.069,7.953,7.953,0,0,0,2.238-6.121A6.373,6.373,0,0,0,254.464,27.456Z" transform="translate(-205.633 -18.195)" fill="#f4b12c"/>
      <path id="Path_668" data-name="Path 668" d="M210.808,20.351a9.518,9.518,0,0,0-2.712,5.941,6.249,6.249,0,0,0,2,4.574c1.075,1.113,1.676,2.493,3.268,3.466,3.17,1.937,4.724,1.957,7.341,2.771a37.757,37.757,0,0,0,11.714,2.126c1.981,0,4.221-.7,6.064-.934,3.374-.435,5.431-.174,8.047-1.192a24.867,24.867,0,0,0,8.048-4.9,7.685,7.685,0,0,0,2.162-5.914,5.913,5.913,0,0,0-.944-3.255,16.807,16.807,0,0,0-2.085-2.132,22.807,22.807,0,0,0-5.808-4.179,29.1,29.1,0,0,0-8.5-2.383,80.728,80.728,0,0,0-8.111-.567c-6.006,0-9.793,1.529-14.8,2.773a10.54,10.54,0,0,0-2.542,1A17.468,17.468,0,0,0,210.808,20.351Z" transform="translate(-206.961 -13.775)" fill="#ffca61"/>
    </g>
    <g id="Group_173" data-name="Group 173" transform="translate(206.577 14.68)">
      <path id="Path_669" data-name="Path 669" d="M222.5,19.594a24.625,24.625,0,0,0-5.281.818,10.637,10.637,0,0,0-3.263,2.539c-1.8,1.723-4.18,3.313-3.329,6.134a.3.3,0,0,0,.575-.158c-.2-.819.823-2.639,1.4-3.262a12.754,12.754,0,0,1,1.125-.947,31.262,31.262,0,0,1,2.725-2.284c1.84-1.233,4.159-1.5,6.141-2.5A.182.182,0,0,0,222.5,19.594Z" transform="translate(-210.445 -17.818)" fill="#ffe3a6" opacity="0.5"/>
      <path id="Path_670" data-name="Path 670" d="M265.88,17.469c-.451-.069-.9-.159-1.341-.26-2.482-.767-4.77-1.642-7.47-1.44-.826.062-4.121-.08-4,1.365.134,1.592,3.208.325,3.894.192a13.616,13.616,0,0,1,6.153.61c1.113.285,1.81.523,2.819-.04C266.1,17.806,266.085,17.5,265.88,17.469Z" transform="translate(-233.431 -15.74)" fill="#ffe3a6" opacity="0.5"/>
      <path id="Path_671" data-name="Path 671" d="M291.693,58.046a1.411,1.411,0,0,0-1.323.151c-1.148.156-3.959.831-3.343,1.845.367.6,1.883-.114,2.344-.235a4.4,4.4,0,0,0,2.386-1.269A.316.316,0,0,0,291.693,58.046Z" transform="translate(-251.699 -38.495)" fill="#ffe3a6" opacity="0.5"/>
      <path id="Path_672" data-name="Path 672" d="M304.093,50.477a3.049,3.049,0,0,0-1.316.862c-.516.447-2.005,1.816-2.13,1.933-.185.174.049.431.256.333a11.605,11.605,0,0,0,2.11-1.073,5.362,5.362,0,0,0,1.362-1.685A.254.254,0,0,0,304.093,50.477Z" transform="translate(-259.056 -34.472)" fill="#ffe3a6" opacity="0.5"/>
      <path id="Path_673" data-name="Path 673" d="M265.439,64.031a1.116,1.116,0,0,0-.265-.075.064.064,0,0,0-.026-.049,2.128,2.128,0,0,0-1.655.1c-.426.163-.861.385-.867.9a.286.286,0,0,0,.208.273,3.314,3.314,0,0,0,2.678-.585A.312.312,0,0,0,265.439,64.031Z" transform="translate(-238.587 -41.643)" fill="#ffe3a6" opacity="0.5"/>
      <path id="Path_674" data-name="Path 674" d="M300.132,26.439c-.407-.86-3.007-2.709-3.435-2.865a.3.3,0,0,0-.373.373,1.715,1.715,0,0,0,.685.8,3.618,3.618,0,0,1,.9,1.183,1.819,1.819,0,0,0,2.046.936A.3.3,0,0,0,300.132,26.439Z" transform="translate(-256.752 -19.957)" fill="#ffe3a6" opacity="0.5"/>
      <path id="Path_675" data-name="Path 675" d="M310.562,37.8a.113.113,0,0,0-.052-.044.1.1,0,0,0-.149-.081c-.564.321-.284.749-.268,1.293.012.377-.3,1.159.185,1.379C311.1,40.718,310.751,38.153,310.562,37.8Z" transform="translate(-264.139 -27.562)" fill="#ffe3a6" opacity="0.5"/>
      <path id="Path_676" data-name="Path 676" d="M218.375,54.4a10.582,10.582,0,0,0-1.642-1.578.309.309,0,0,0-.369.047c-.4.454.115.926.467,1.207a1.974,1.974,0,0,0,1.472.6A.167.167,0,0,0,218.375,54.4Z" transform="translate(-213.558 -35.715)" fill="#ffe3a6" opacity="0.5"/>
    </g>
    <path id="Path_677" data-name="Path 677" d="M223.4,20.911a3.779,3.779,0,0,0-3.171,1.975,8.826,8.826,0,0,1-3.722,2.344c-2.265.782-3.1,2.036-3.079,3.914.014,1.125,2.312,2.187,2.441,3.741a5.269,5.269,0,0,0,4.964,4.6c2.232.2,9.825,1.037,11.025,1.76s5.253-.662,6.941.041,6.375-2.332,7.316-2.151,6.188-.3,8.215-1.88,1.992-1.217,2.535-3.566c.341-1.474,1.082-3.38,0-4.692-1.241-1.5-3.171-1.374-4.361-3.024s-1.672-2.1-4.554-2.908-7.98.257-9.271.243-2.514-1.851-5.419-1.906S223.4,20.911,223.4,20.911Z" transform="translate(-5.476 -3.032)" fill="#ef622b" opacity="0.5"/>
    <path id="Path_678" data-name="Path 678" d="M230.164,23.175c-1.58.612-3.563,3.435-5.11,4.116s-5-.041-4.924,3.6,1.858,4.541,3.059,5.9,6.564,2.28,8.145,2.229,7.093,1.377,9.892.2,4.645-.363,6.583-.807,5.808-1.425,6.841-2.745,5.484-2.83,3.647-5.082-3.267-2.37-4.124-3.235.246-2.247-3.34-2.856-7.783.342-9.287-.592-2.07-1.615-5.156-1.305S231.744,22.562,230.164,23.175Z" transform="translate(-9.091 -4.715)" fill="#ed2b2b" opacity="0.8"/>
    <g id="Group_174" data-name="Group 174" transform="translate(221.451 33.061)">
      <rect id="Rectangle_42" data-name="Rectangle 42" width="9.209" height="0.497" transform="translate(0 2.425)" fill="#5e8e11"/>
      <path id="Path_679" data-name="Path 679" d="M251.939,58.924c0,1.353-2.061,2.449-4.6,2.449s-4.6-1.1-4.6-2.449,2.061-2.449,4.6-2.449S251.939,57.571,251.939,58.924Z" transform="translate(-242.731 -56.09)" fill="#5e8e11"/>
      <ellipse id="Ellipse_26" data-name="Ellipse 26" cx="4.604" cy="2.449" rx="4.604" ry="2.449" fill="#bed134"/>
      <ellipse id="Ellipse_27" data-name="Ellipse 27" cx="4.124" cy="2.064" rx="4.124" ry="2.064" transform="translate(0.48 0.385)" fill="#71aa21"/>
      <path id="Path_680" data-name="Path 680" d="M248.481,59.292a2.677,2.677,0,0,0-2.018-1.08c-1.531.119-1.325.666-.918,1.08C245.925,59.68,247.252,59.625,248.481,59.292Z" transform="translate(-244.09 -57.023)" fill="#5e8e11"/>
      <path id="Path_681" data-name="Path 681" d="M253.015,59.436a3.908,3.908,0,0,1,2.2-.925c1.184-.006,1.252.521.854.945C255.572,59.981,254.244,59.768,253.015,59.436Z" transform="translate(-248.277 -57.188)" fill="#5e8e11"/>
      <path id="Path_682" data-name="Path 682" d="M249.456,60.955s-1.681.4-2.187.582-.065.889,1,.9C249.648,62.45,249.456,60.955,249.456,60.955Z" transform="translate(-245.065 -58.506)" fill="#5e8e11"/>
      <path id="Path_683" data-name="Path 683" d="M252.841,60.955a19.209,19.209,0,0,1,2.187.582c.611.273-.24.889-1.3.9C252.345,62.45,252.841,60.955,252.841,60.955Z" transform="translate(-248.137 -58.506)" fill="#5e8e11"/>
      <path id="Path_684" data-name="Path 684" d="M251.68,58.394a7.931,7.931,0,0,1-.857-.865c-.153-.241.19-.574.99-.579,1.106-.006,1.2.318.83.722A4.22,4.22,0,0,1,251.68,58.394Z" transform="translate(-247.076 -56.346)" fill="#5e8e11"/>
    </g>
    <g id="Group_175" data-name="Group 175" transform="translate(229.611 22.689)">
      <rect id="Rectangle_43" data-name="Rectangle 43" width="9.209" height="0.497" transform="translate(0 2.425)" fill="#5e8e11"/>
      <path id="Path_685" data-name="Path 685" d="M269.651,36.41c0,1.353-2.061,2.449-4.6,2.449s-4.6-1.1-4.6-2.449,2.061-2.449,4.6-2.449S269.651,35.057,269.651,36.41Z" transform="translate(-260.443 -33.575)" fill="#5e8e11"/>
      <path id="Path_686" data-name="Path 686" d="M269.651,35.573c0,1.353-2.061,2.449-4.6,2.449s-4.6-1.1-4.6-2.449,2.061-2.449,4.6-2.449S269.651,34.221,269.651,35.573Z" transform="translate(-260.443 -33.124)" fill="#bed134"/>
      <path id="Path_687" data-name="Path 687" d="M269.733,36.025c0,1.14-1.846,2.063-4.124,2.063s-4.124-.924-4.124-2.063,1.846-2.064,4.124-2.064S269.733,34.885,269.733,36.025Z" transform="translate(-261.005 -33.575)" fill="#71aa21"/>
      <path id="Path_688" data-name="Path 688" d="M266.193,36.778a2.677,2.677,0,0,0-2.018-1.08c-1.53.119-1.325.666-.918,1.08C263.637,37.166,264.964,37.111,266.193,36.778Z" transform="translate(-261.802 -34.509)" fill="#5e8e11"/>
      <path id="Path_689" data-name="Path 689" d="M270.728,36.922A3.908,3.908,0,0,1,272.923,36c1.184-.006,1.252.521.854.945C273.285,37.467,271.957,37.254,270.728,36.922Z" transform="translate(-265.99 -34.673)" fill="#5e8e11"/>
      <path id="Path_690" data-name="Path 690" d="M267.168,38.441s-1.681.4-2.187.582-.064.889,1,.9C267.361,39.936,267.168,38.441,267.168,38.441Z" transform="translate(-262.777 -35.992)" fill="#5e8e11"/>
      <path id="Path_691" data-name="Path 691" d="M270.553,38.441a19.185,19.185,0,0,1,2.187.582c.611.273-.24.889-1.3.9C270.057,39.936,270.553,38.441,270.553,38.441Z" transform="translate(-265.849 -35.992)" fill="#5e8e11"/>
      <path id="Path_692" data-name="Path 692" d="M269.392,35.88a7.936,7.936,0,0,1-.857-.865c-.153-.241.19-.574.991-.579,1.106-.006,1.2.318.829.722A4.211,4.211,0,0,1,269.392,35.88Z" transform="translate(-264.788 -33.831)" fill="#5e8e11"/>
    </g>
    <g id="Group_176" data-name="Group 176" transform="translate(210.619 19.336)">
      <rect id="Rectangle_44" data-name="Rectangle 44" width="9.209" height="0.497" transform="translate(0 2.425)" fill="#5e8e11"/>
      <path id="Path_693" data-name="Path 693" d="M228.426,29.131c0,1.353-2.061,2.449-4.6,2.449s-4.6-1.1-4.6-2.449,2.061-2.449,4.6-2.449S228.426,27.778,228.426,29.131Z" transform="translate(-219.218 -26.296)" fill="#5e8e11"/>
      <path id="Path_694" data-name="Path 694" d="M228.426,28.294c0,1.353-2.061,2.449-4.6,2.449s-4.6-1.1-4.6-2.449,2.061-2.449,4.6-2.449S228.426,26.941,228.426,28.294Z" transform="translate(-219.218 -25.845)" fill="#bed134"/>
      <path id="Path_695" data-name="Path 695" d="M228.508,28.745c0,1.14-1.846,2.064-4.124,2.064s-4.124-.924-4.124-2.064,1.846-2.063,4.124-2.063S228.508,27.606,228.508,28.745Z" transform="translate(-219.78 -26.296)" fill="#71aa21"/>
      <path id="Path_696" data-name="Path 696" d="M224.968,29.5a2.677,2.677,0,0,0-2.018-1.08c-1.531.119-1.325.666-.918,1.08C222.412,29.887,223.739,29.832,224.968,29.5Z" transform="translate(-220.577 -27.23)" fill="#5e8e11"/>
      <path id="Path_697" data-name="Path 697" d="M229.5,29.642a3.911,3.911,0,0,1,2.2-.925c1.184-.005,1.251.522.854.945C232.059,30.187,230.731,29.975,229.5,29.642Z" transform="translate(-224.764 -27.394)" fill="#5e8e11"/>
      <path id="Path_698" data-name="Path 698" d="M225.943,31.161s-1.681.4-2.187.582-.064.889,1,.9C226.135,32.657,225.943,31.161,225.943,31.161Z" transform="translate(-221.552 -28.712)" fill="#5e8e11"/>
      <path id="Path_699" data-name="Path 699" d="M229.328,31.161a19.234,19.234,0,0,1,2.187.582c.61.273-.24.889-1.3.9C228.832,32.657,229.328,31.161,229.328,31.161Z" transform="translate(-224.624 -28.712)" fill="#5e8e11"/>
      <path id="Path_700" data-name="Path 700" d="M228.167,28.6a7.948,7.948,0,0,1-.857-.866c-.154-.24.189-.574.991-.579,1.106-.006,1.2.318.829.722A4.228,4.228,0,0,1,228.167,28.6Z" transform="translate(-223.563 -26.552)" fill="#5e8e11"/>
    </g>
    <g id="Group_177" data-name="Group 177" transform="translate(214.851 26.372)">
      <rect id="Rectangle_45" data-name="Rectangle 45" width="9.209" height="0.497" transform="translate(0 2.425)" fill="#5e8e11"/>
      <path id="Path_701" data-name="Path 701" d="M237.614,44.4c0,1.353-2.062,2.45-4.6,2.45s-4.6-1.1-4.6-2.45,2.062-2.449,4.6-2.449S237.614,43.051,237.614,44.4Z" transform="translate(-228.405 -41.569)" fill="#5e8e11"/>
      <path id="Path_702" data-name="Path 702" d="M237.614,43.568c0,1.353-2.062,2.449-4.6,2.449s-4.6-1.1-4.6-2.449,2.062-2.449,4.6-2.449S237.614,42.215,237.614,43.568Z" transform="translate(-228.405 -41.118)" fill="#bed134"/>
      <path id="Path_703" data-name="Path 703" d="M237.7,44.019c0,1.14-1.846,2.063-4.124,2.063s-4.124-.924-4.124-2.063,1.846-2.064,4.124-2.064S237.7,42.879,237.7,44.019Z" transform="translate(-228.967 -41.569)" fill="#71aa21"/>
      <path id="Path_704" data-name="Path 704" d="M234.156,44.772a2.677,2.677,0,0,0-2.018-1.08c-1.531.12-1.325.666-.918,1.08C231.6,45.16,232.927,45.1,234.156,44.772Z" transform="translate(-229.765 -42.503)" fill="#5e8e11"/>
      <path id="Path_705" data-name="Path 705" d="M238.69,44.916a3.908,3.908,0,0,1,2.2-.925c1.184-.006,1.251.521.854.945C241.247,45.461,239.919,45.249,238.69,44.916Z" transform="translate(-233.952 -42.667)" fill="#5e8e11"/>
      <path id="Path_706" data-name="Path 706" d="M235.131,46.435s-1.681.4-2.187.582-.064.889,1,.9C235.323,47.93,235.131,46.435,235.131,46.435Z" transform="translate(-230.74 -43.986)" fill="#5e8e11"/>
      <path id="Path_707" data-name="Path 707" d="M238.516,46.435a19.182,19.182,0,0,1,2.187.582c.611.273-.239.889-1.3.9C238.02,47.93,238.516,46.435,238.516,46.435Z" transform="translate(-233.811 -43.986)" fill="#5e8e11"/>
      <path id="Path_708" data-name="Path 708" d="M237.355,43.874a7.978,7.978,0,0,1-.857-.865c-.154-.241.189-.574.99-.579,1.106-.006,1.2.318.829.722A4.219,4.219,0,0,1,237.355,43.874Z" transform="translate(-232.75 -41.825)" fill="#5e8e11"/>
    </g>
    <g id="Group_178" data-name="Group 178" transform="translate(220.366 18.816)">
      <rect id="Rectangle_46" data-name="Rectangle 46" width="9.209" height="0.497" transform="translate(0 2.425)" fill="#5e8e11"/>
      <path id="Path_709" data-name="Path 709" d="M249.584,28c0,1.353-2.062,2.449-4.6,2.449s-4.6-1.1-4.6-2.449,2.062-2.449,4.6-2.449S249.584,26.649,249.584,28Z" transform="translate(-240.375 -25.168)" fill="#5e8e11"/>
      <ellipse id="Ellipse_28" data-name="Ellipse 28" cx="4.604" cy="2.449" rx="4.604" ry="2.449" transform="translate(0)" fill="#bed134"/>
      <path id="Path_710" data-name="Path 710" d="M249.666,27.617c0,1.14-1.846,2.063-4.125,2.063s-4.124-.924-4.124-2.063,1.846-2.064,4.124-2.064S249.666,26.477,249.666,27.617Z" transform="translate(-240.937 -25.168)" fill="#71aa21"/>
      <path id="Path_711" data-name="Path 711" d="M246.125,28.37a2.676,2.676,0,0,0-2.018-1.08c-1.53.119-1.325.666-.918,1.08C243.57,28.758,244.9,28.7,246.125,28.37Z" transform="translate(-241.734 -26.101)" fill="#5e8e11"/>
      <path id="Path_712" data-name="Path 712" d="M250.66,28.514a3.908,3.908,0,0,1,2.2-.925c1.184-.006,1.251.521.854.945C253.217,29.059,251.889,28.847,250.66,28.514Z" transform="translate(-245.922 -26.266)" fill="#5e8e11"/>
      <path id="Path_713" data-name="Path 713" d="M247.1,30.033s-1.681.4-2.187.582-.064.889,1,.9C247.293,31.528,247.1,30.033,247.1,30.033Z" transform="translate(-242.709 -27.584)" fill="#5e8e11"/>
      <path id="Path_714" data-name="Path 714" d="M250.486,30.033a19.185,19.185,0,0,1,2.187.582c.611.273-.24.889-1.3.9C249.989,31.528,250.486,30.033,250.486,30.033Z" transform="translate(-245.781 -27.584)" fill="#5e8e11"/>
      <path id="Path_715" data-name="Path 715" d="M249.324,27.472a8.02,8.02,0,0,1-.857-.865c-.153-.241.19-.574.991-.579,1.106-.006,1.2.318.829.722A4.21,4.21,0,0,1,249.324,27.472Z" transform="translate(-244.72 -25.424)" fill="#5e8e11"/>
    </g>
    <g id="Group_179" data-name="Group 179" transform="translate(229.498 15.981)">
      <rect id="Rectangle_47" data-name="Rectangle 47" width="9.209" height="0.497" transform="translate(0 2.425)" fill="#5e8e11"/>
      <ellipse id="Ellipse_29" data-name="Ellipse 29" cx="4.604" cy="2.449" rx="4.604" ry="2.449" transform="translate(0 0.385)" fill="#5e8e11"/>
      <ellipse id="Ellipse_30" data-name="Ellipse 30" cx="4.604" cy="2.449" rx="4.604" ry="2.449" transform="translate(0)" fill="#bed134"/>
      <path id="Path_716" data-name="Path 716" d="M269.489,21.464c0,1.14-1.846,2.063-4.124,2.063s-4.124-.924-4.124-2.063,1.846-2.064,4.124-2.064S269.489,20.324,269.489,21.464Z" transform="translate(-260.761 -19.015)" fill="#71aa21"/>
      <path id="Path_717" data-name="Path 717" d="M265.949,22.217a2.677,2.677,0,0,0-2.018-1.08c-1.53.12-1.325.666-.918,1.08C263.393,22.6,264.72,22.55,265.949,22.217Z" transform="translate(-261.558 -19.948)" fill="#5e8e11"/>
      <path id="Path_718" data-name="Path 718" d="M270.483,22.361a3.91,3.91,0,0,1,2.2-.925c1.184-.006,1.252.521.854.945C273.041,22.906,271.712,22.694,270.483,22.361Z" transform="translate(-265.745 -20.113)" fill="#5e8e11"/>
      <path id="Path_719" data-name="Path 719" d="M266.924,23.88s-1.681.4-2.187.582-.064.889,1,.9C267.117,25.375,266.924,23.88,266.924,23.88Z" transform="translate(-262.533 -21.431)" fill="#5e8e11"/>
      <path id="Path_720" data-name="Path 720" d="M270.309,23.88a19.31,19.31,0,0,1,2.187.582c.611.273-.24.89-1.3.9C269.813,25.375,270.309,23.88,270.309,23.88Z" transform="translate(-265.605 -21.431)" fill="#5e8e11"/>
      <path id="Path_721" data-name="Path 721" d="M269.148,21.32a7.931,7.931,0,0,1-.857-.865c-.153-.241.19-.574.99-.579,1.106-.006,1.2.317.83.722A4.217,4.217,0,0,1,269.148,21.32Z" transform="translate(-264.544 -19.271)" fill="#5e8e11"/>
    </g>
    <g id="Group_180" data-name="Group 180" transform="translate(240.478 20.584)">
      <rect id="Rectangle_48" data-name="Rectangle 48" width="9.209" height="0.497" transform="translate(0 2.425)" fill="#5e8e11"/>
      <path id="Path_722" data-name="Path 722" d="M293.241,31.841c0,1.353-2.061,2.449-4.6,2.449s-4.6-1.1-4.6-2.449,2.061-2.449,4.6-2.449S293.241,30.489,293.241,31.841Z" transform="translate(-284.033 -29.007)" fill="#5e8e11"/>
      <ellipse id="Ellipse_31" data-name="Ellipse 31" cx="4.604" cy="2.449" rx="4.604" ry="2.449" fill="#bed134"/>
      <path id="Path_723" data-name="Path 723" d="M293.323,31.456c0,1.14-1.846,2.064-4.124,2.064s-4.124-.924-4.124-2.064,1.846-2.064,4.124-2.064S293.323,30.316,293.323,31.456Z" transform="translate(-284.595 -29.007)" fill="#71aa21"/>
      <path id="Path_724" data-name="Path 724" d="M289.783,32.21a2.677,2.677,0,0,0-2.018-1.08c-1.531.119-1.325.665-.918,1.08C287.227,32.6,288.554,32.542,289.783,32.21Z" transform="translate(-285.392 -29.941)" fill="#5e8e11"/>
      <path id="Path_725" data-name="Path 725" d="M294.317,32.353a3.912,3.912,0,0,1,2.2-.925c1.184-.006,1.251.521.854.945C296.874,32.9,295.546,32.686,294.317,32.353Z" transform="translate(-289.579 -30.105)" fill="#5e8e11"/>
      <path id="Path_726" data-name="Path 726" d="M290.758,33.872s-1.681.4-2.187.582-.064.889,1,.9C290.951,35.367,290.758,33.872,290.758,33.872Z" transform="translate(-286.367 -31.423)" fill="#5e8e11"/>
      <path id="Path_727" data-name="Path 727" d="M294.143,33.872a19.31,19.31,0,0,1,2.187.582c.611.273-.24.89-1.3.9C293.647,35.367,294.143,33.872,294.143,33.872Z" transform="translate(-289.439 -31.423)" fill="#5e8e11"/>
      <path id="Path_728" data-name="Path 728" d="M292.982,31.312a7.934,7.934,0,0,1-.857-.865c-.153-.241.19-.574.99-.579,1.106-.006,1.2.317.83.722A4.228,4.228,0,0,1,292.982,31.312Z" transform="translate(-288.378 -29.263)" fill="#5e8e11"/>
    </g>
    <g id="Group_181" data-name="Group 181" transform="translate(214.753 30.642)">
      <rect id="Rectangle_49" data-name="Rectangle 49" width="10.468" height="0.565" transform="translate(0 2.756)" fill="#ed2b2b"/>
      <path id="Path_729" data-name="Path 729" d="M238.66,54.122c0,1.537-2.344,2.784-5.234,2.784s-5.234-1.247-5.234-2.784,2.344-2.784,5.234-2.784S238.66,52.585,238.66,54.122Z" transform="translate(-228.192 -50.9)" fill="#ed2b2b"/>
      <path id="Path_730" data-name="Path 730" d="M238.66,53.171c0,1.538-2.344,2.784-5.234,2.784s-5.234-1.247-5.234-2.784,2.344-2.784,5.234-2.784S238.66,51.634,238.66,53.171Z" transform="translate(-228.192 -50.387)" fill="#ff6969"/>
      <path id="Path_731" data-name="Path 731" d="M238.753,53.684c0,1.3-2.1,2.346-4.688,2.346s-4.688-1.05-4.688-2.346,2.1-2.346,4.688-2.346S238.753,52.388,238.753,53.684Z" transform="translate(-228.831 -50.9)" fill="#ff4343"/>
      <path id="Path_732" data-name="Path 732" d="M231.725,55.188a1.364,1.364,0,0,1-.043-2.546,6.918,6.918,0,0,1,4.524-.582c.672.16-.038.783-.833.842a6.367,6.367,0,0,0-1.726.355c-.608.266-.843.668-.823.873C232.861,54.506,232.106,55.176,231.725,55.188Z" transform="translate(-229.609 -51.212)" fill="#ed2b2b"/>
      <path id="Path_733" data-name="Path 733" d="M235.312,55.386c-.483.255-1.225.921-.4,1.164a6.952,6.952,0,0,0,4.813-.381c1.274-.6,1.576-1.593.834-2.29-.539-.506-1.075-.549-1.377-.353-.7.456-.085,1.266-1.45,1.535A12.172,12.172,0,0,0,235.312,55.386Z" transform="translate(-231.617 -52.021)" fill="#ed2b2b"/>
      <path id="Path_734" data-name="Path 734" d="M240.25,52.949s.364-.475-.076-.464C239.884,52.492,240.25,52.949,240.25,52.949Z" transform="translate(-234.594 -51.518)" fill="#ff6969"/>
      <path id="Path_735" data-name="Path 735" d="M238.759,53s0-.6-.471-.529C237.978,52.517,238.759,53,238.759,53Z" transform="translate(-233.598 -51.506)" fill="#ff6969"/>
      <path id="Path_736" data-name="Path 736" d="M237.045,53.218s-.3-.548-.646-.44S237.045,53.218,237.045,53.218Z" transform="translate(-232.58 -51.669)" fill="#ff6969"/>
      <path id="Path_737" data-name="Path 737" d="M235.254,53.751s-.362-.653-.831-.458S235.254,53.751,235.254,53.751Z" transform="translate(-231.498 -51.935)" fill="#ff6969"/>
      <path id="Path_738" data-name="Path 738" d="M233.8,54.654s-.573-.682-1.1-.345C232.355,54.535,233.8,54.654,233.8,54.654Z" transform="translate(-230.597 -52.452)" fill="#ff6969"/>
      <path id="Path_739" data-name="Path 739" d="M233.075,55.844s-.84-.29-1.125-.088S232.477,56.241,233.075,55.844Z" transform="translate(-230.188 -53.244)" fill="#ff6969"/>
      <path id="Path_740" data-name="Path 740" d="M233.24,56.983a2.137,2.137,0,0,0-.869.214c-.138.094,0,.323.277.27A.749.749,0,0,0,233.24,56.983Z" transform="translate(-230.417 -53.944)" fill="#ff6969"/>
      <path id="Path_741" data-name="Path 741" d="M244.558,54.434a.92.92,0,0,1,.6-.219c.34.019.5.239.1.268A2.424,2.424,0,0,1,244.558,54.434Z" transform="translate(-237.018 -52.451)" fill="#ff6969"/>
      <path id="Path_742" data-name="Path 742" d="M236.314,57.971a1.885,1.885,0,0,0-.531.44c-.114.192.327.391.461.043S236.314,57.971,236.314,57.971Z" transform="translate(-232.276 -54.477)" fill="#ff6969"/>
      <path id="Path_743" data-name="Path 743" d="M238.14,57.971a.721.721,0,0,0-.148.483c.014.3.4.369.375,0A.585.585,0,0,0,238.14,57.971Z" transform="translate(-233.477 -54.477)" fill="#ff6969"/>
      <path id="Path_744" data-name="Path 744" d="M239.765,57.8a2.35,2.35,0,0,0,.085.56c.078.241.639.369.412-.057A.959.959,0,0,0,239.765,57.8Z" transform="translate(-234.433 -54.387)" fill="#ff6969"/>
      <path id="Path_745" data-name="Path 745" d="M241.509,57.678a1.993,1.993,0,0,0,.453.618c.3.263.61.064.334-.234A1.59,1.59,0,0,0,241.509,57.678Z" transform="translate(-235.374 -54.319)" fill="#ff6969"/>
      <path id="Path_746" data-name="Path 746" d="M243.032,57.1a2.7,2.7,0,0,0,.653.563c.355.2.71.007.284-.241A2.954,2.954,0,0,0,243.032,57.1Z" transform="translate(-236.195 -54.009)" fill="#ff6969"/>
      <path id="Path_747" data-name="Path 747" d="M244.157,56.231a3.406,3.406,0,0,0,.98.467c.376.059.617-.341.192-.412A8.36,8.36,0,0,0,244.157,56.231Z" transform="translate(-236.802 -53.538)" fill="#ff6969"/>
      <path id="Path_748" data-name="Path 748" d="M244.672,55.379a2.576,2.576,0,0,1,.814-.126c.3.035.568.241.241.256A6.685,6.685,0,0,1,244.672,55.379Z" transform="translate(-237.08 -53.009)" fill="#ff6969"/>
    </g>
    <g id="Group_182" data-name="Group 182" transform="translate(229.773 31.838)">
      <rect id="Rectangle_50" data-name="Rectangle 50" width="10.468" height="0.565" transform="translate(0 2.756)" fill="#ed2b2b"/>
      <path id="Path_749" data-name="Path 749" d="M271.264,56.718c0,1.538-2.343,2.784-5.234,2.784s-5.234-1.247-5.234-2.784,2.344-2.784,5.234-2.784S271.264,55.181,271.264,56.718Z" transform="translate(-260.796 -53.496)" fill="#ed2b2b"/>
      <path id="Path_750" data-name="Path 750" d="M271.264,55.767c0,1.538-2.343,2.784-5.234,2.784S260.8,57.3,260.8,55.767s2.344-2.784,5.234-2.784S271.264,54.23,271.264,55.767Z" transform="translate(-260.796 -52.983)" fill="#ff6969"/>
      <path id="Path_751" data-name="Path 751" d="M271.358,56.28c0,1.3-2.1,2.346-4.688,2.346s-4.688-1.05-4.688-2.346,2.1-2.346,4.688-2.346S271.358,54.984,271.358,56.28Z" transform="translate(-261.435 -53.496)" fill="#ff4343"/>
      <path id="Path_752" data-name="Path 752" d="M264.329,57.784a1.363,1.363,0,0,1-.043-2.545,6.912,6.912,0,0,1,4.524-.582c.672.159-.038.782-.833.841a6.367,6.367,0,0,0-1.726.355c-.608.266-.843.668-.823.873C265.465,57.1,264.71,57.772,264.329,57.784Z" transform="translate(-262.213 -53.808)" fill="#ed2b2b"/>
      <path id="Path_753" data-name="Path 753" d="M267.916,57.982c-.483.254-1.225.921-.4,1.163a6.95,6.95,0,0,0,4.813-.381c1.274-.6,1.577-1.593.834-2.29-.539-.506-1.075-.549-1.377-.353-.7.456-.085,1.266-1.45,1.535A12.172,12.172,0,0,0,267.916,57.982Z" transform="translate(-264.221 -54.617)" fill="#ed2b2b"/>
      <path id="Path_754" data-name="Path 754" d="M272.854,55.546s.364-.475-.076-.465C272.488,55.088,272.854,55.546,272.854,55.546Z" transform="translate(-267.198 -54.114)" fill="#ff6969"/>
      <path id="Path_755" data-name="Path 755" d="M271.363,55.594s0-.6-.471-.529C270.582,55.113,271.363,55.594,271.363,55.594Z" transform="translate(-266.202 -54.102)" fill="#ff6969"/>
      <path id="Path_756" data-name="Path 756" d="M269.649,55.814s-.3-.549-.646-.44S269.649,55.814,269.649,55.814Z" transform="translate(-265.184 -54.265)" fill="#ff6969"/>
      <path id="Path_757" data-name="Path 757" d="M267.858,56.347s-.362-.653-.831-.458S267.858,56.347,267.858,56.347Z" transform="translate(-264.102 -54.531)" fill="#ff6969"/>
      <path id="Path_758" data-name="Path 758" d="M266.407,57.25s-.573-.682-1.1-.345C264.959,57.13,266.407,57.25,266.407,57.25Z" transform="translate(-263.201 -55.048)" fill="#ff6969"/>
      <path id="Path_759" data-name="Path 759" d="M265.679,58.44s-.84-.29-1.125-.088S265.081,58.837,265.679,58.44Z" transform="translate(-262.791 -55.84)" fill="#ff6969"/>
      <path id="Path_760" data-name="Path 760" d="M265.844,59.579a2.137,2.137,0,0,0-.869.214c-.138.094,0,.323.277.27A.749.749,0,0,0,265.844,59.579Z" transform="translate(-263.021 -56.54)" fill="#ff6969"/>
      <path id="Path_761" data-name="Path 761" d="M277.162,57.03a.918.918,0,0,1,.6-.219c.34.019.5.239.1.267A2.418,2.418,0,0,1,277.162,57.03Z" transform="translate(-269.622 -55.047)" fill="#ff6969"/>
      <path id="Path_762" data-name="Path 762" d="M268.918,60.567a1.884,1.884,0,0,0-.531.44c-.114.192.327.391.462.043S268.918,60.567,268.918,60.567Z" transform="translate(-264.88 -57.073)" fill="#ff6969"/>
      <path id="Path_763" data-name="Path 763" d="M270.744,60.567a.721.721,0,0,0-.148.483c.014.3.4.369.375,0A.585.585,0,0,0,270.744,60.567Z" transform="translate(-266.081 -57.073)" fill="#ff6969"/>
      <path id="Path_764" data-name="Path 764" d="M272.369,60.4a2.352,2.352,0,0,0,.085.56c.078.241.639.369.412-.057A.959.959,0,0,0,272.369,60.4Z" transform="translate(-267.037 -56.983)" fill="#ff6969"/>
      <path id="Path_765" data-name="Path 765" d="M274.113,60.274a1.992,1.992,0,0,0,.453.618c.3.263.61.064.334-.234A1.59,1.59,0,0,0,274.113,60.274Z" transform="translate(-267.978 -56.915)" fill="#ff6969"/>
      <path id="Path_766" data-name="Path 766" d="M275.636,59.7a2.707,2.707,0,0,0,.653.563c.355.2.71.007.284-.241A2.954,2.954,0,0,0,275.636,59.7Z" transform="translate(-268.799 -56.605)" fill="#ff6969"/>
      <path id="Path_767" data-name="Path 767" d="M276.761,58.827a3.406,3.406,0,0,0,.98.467c.376.059.618-.341.192-.412A8.36,8.36,0,0,0,276.761,58.827Z" transform="translate(-269.406 -56.134)" fill="#ff6969"/>
      <path id="Path_768" data-name="Path 768" d="M277.276,57.975a2.576,2.576,0,0,1,.814-.126c.305.035.568.241.241.256A6.686,6.686,0,0,1,277.276,57.975Z" transform="translate(-269.684 -55.605)" fill="#ff6969"/>
    </g>
    <g id="Group_183" data-name="Group 183" transform="translate(205.878 24.681)">
      <rect id="Rectangle_51" data-name="Rectangle 51" width="10.468" height="0.565" transform="translate(0 2.756)" fill="#ed2b2b"/>
      <path id="Path_769" data-name="Path 769" d="M219.4,41.183c0,1.537-2.343,2.784-5.234,2.784s-5.234-1.247-5.234-2.784,2.344-2.784,5.234-2.784S219.4,39.646,219.4,41.183Z" transform="translate(-208.928 -37.961)" fill="#ed2b2b"/>
      <path id="Path_770" data-name="Path 770" d="M219.4,40.232c0,1.538-2.343,2.784-5.234,2.784s-5.234-1.247-5.234-2.784,2.344-2.784,5.234-2.784S219.4,38.695,219.4,40.232Z" transform="translate(-208.928 -37.448)" fill="#ff6969"/>
      <path id="Path_771" data-name="Path 771" d="M219.49,40.745c0,1.3-2.1,2.346-4.688,2.346s-4.688-1.05-4.688-2.346,2.1-2.346,4.688-2.346S219.49,39.449,219.49,40.745Z" transform="translate(-209.567 -37.961)" fill="#ff4343"/>
      <path id="Path_772" data-name="Path 772" d="M212.462,42.249a1.363,1.363,0,0,1-.043-2.545,6.912,6.912,0,0,1,4.524-.582c.672.159-.038.782-.832.841a6.367,6.367,0,0,0-1.727.355c-.608.266-.843.668-.823.873C213.6,41.568,212.843,42.237,212.462,42.249Z" transform="translate(-210.346 -38.273)" fill="#ed2b2b"/>
      <path id="Path_773" data-name="Path 773" d="M216.049,42.447c-.483.254-1.225.921-.4,1.163a6.949,6.949,0,0,0,4.813-.381c1.274-.6,1.577-1.593.834-2.29-.539-.506-1.075-.549-1.377-.353-.7.456-.085,1.266-1.451,1.535A12.162,12.162,0,0,0,216.049,42.447Z" transform="translate(-212.353 -39.082)" fill="#ed2b2b"/>
      <path id="Path_774" data-name="Path 774" d="M220.986,40.011s.364-.475-.076-.465C220.62,39.553,220.986,40.011,220.986,40.011Z" transform="translate(-215.33 -38.579)" fill="#ff6969"/>
      <path id="Path_775" data-name="Path 775" d="M219.5,40.059s0-.6-.471-.529C218.715,39.578,219.5,40.059,219.5,40.059Z" transform="translate(-214.334 -38.567)" fill="#ff6969"/>
      <path id="Path_776" data-name="Path 776" d="M217.781,40.279s-.3-.549-.646-.44S217.781,40.279,217.781,40.279Z" transform="translate(-213.316 -38.73)" fill="#ff6969"/>
      <path id="Path_777" data-name="Path 777" d="M215.99,40.812s-.361-.653-.831-.458S215.99,40.812,215.99,40.812Z" transform="translate(-212.234 -38.996)" fill="#ff6969"/>
      <path id="Path_778" data-name="Path 778" d="M214.54,41.715s-.573-.682-1.1-.345C213.092,41.6,214.54,41.715,214.54,41.715Z" transform="translate(-211.333 -39.513)" fill="#ff6969"/>
      <path id="Path_779" data-name="Path 779" d="M213.811,42.905s-.84-.29-1.125-.088S213.213,43.3,213.811,42.905Z" transform="translate(-210.923 -40.305)" fill="#ff6969"/>
      <path id="Path_780" data-name="Path 780" d="M213.976,44.044a2.137,2.137,0,0,0-.869.214c-.138.094,0,.323.277.27A.749.749,0,0,0,213.976,44.044Z" transform="translate(-211.153 -41.005)" fill="#ff6969"/>
      <path id="Path_781" data-name="Path 781" d="M225.294,41.495a.92.92,0,0,1,.6-.219c.341.019.5.239.1.268A2.426,2.426,0,0,1,225.294,41.495Z" transform="translate(-217.754 -39.512)" fill="#ff6969"/>
      <path id="Path_782" data-name="Path 782" d="M217.051,45.032a1.891,1.891,0,0,0-.531.44c-.113.192.327.391.462.043S217.051,45.032,217.051,45.032Z" transform="translate(-213.012 -41.538)" fill="#ff6969"/>
      <path id="Path_783" data-name="Path 783" d="M218.876,45.032a.724.724,0,0,0-.148.483c.014.3.4.369.375,0A.586.586,0,0,0,218.876,45.032Z" transform="translate(-214.213 -41.538)" fill="#ff6969"/>
      <path id="Path_784" data-name="Path 784" d="M220.5,44.865a2.35,2.35,0,0,0,.085.56c.078.241.639.369.412-.057A.959.959,0,0,0,220.5,44.865Z" transform="translate(-215.169 -41.448)" fill="#ff6969"/>
      <path id="Path_785" data-name="Path 785" d="M222.245,44.739a1.993,1.993,0,0,0,.453.618c.3.263.61.064.334-.234A1.59,1.59,0,0,0,222.245,44.739Z" transform="translate(-216.11 -41.38)" fill="#ff6969"/>
      <path id="Path_786" data-name="Path 786" d="M223.768,44.164a2.707,2.707,0,0,0,.653.563c.355.2.71.007.284-.241A2.959,2.959,0,0,0,223.768,44.164Z" transform="translate(-216.931 -41.07)" fill="#ff6969"/>
      <path id="Path_787" data-name="Path 787" d="M224.893,43.292a3.406,3.406,0,0,0,.98.467c.376.059.618-.341.192-.412A8.361,8.361,0,0,0,224.893,43.292Z" transform="translate(-217.538 -40.599)" fill="#ff6969"/>
      <path id="Path_788" data-name="Path 788" d="M225.408,42.44a2.576,2.576,0,0,1,.814-.126c.305.035.568.241.241.255A6.645,6.645,0,0,1,225.408,42.44Z" transform="translate(-217.816 -40.07)" fill="#ff6969"/>
    </g>
    <g id="Group_184" data-name="Group 184" transform="translate(217.378 15.094)">
      <rect id="Rectangle_52" data-name="Rectangle 52" width="10.468" height="0.565" transform="translate(0 2.756)" fill="#ed2b2b"/>
      <path id="Path_789" data-name="Path 789" d="M244.358,20.375c0,1.538-2.344,2.784-5.234,2.784s-5.234-1.246-5.234-2.784,2.343-2.784,5.234-2.784S244.358,18.837,244.358,20.375Z" transform="translate(-233.89 -17.152)" fill="#ed2b2b"/>
      <path id="Path_790" data-name="Path 790" d="M244.358,19.423c0,1.537-2.344,2.784-5.234,2.784s-5.234-1.247-5.234-2.784,2.343-2.784,5.234-2.784S244.358,17.886,244.358,19.423Z" transform="translate(-233.89 -16.639)" fill="#ff6969"/>
      <path id="Path_791" data-name="Path 791" d="M244.451,19.937c0,1.3-2.1,2.346-4.688,2.346s-4.688-1.05-4.688-2.346,2.1-2.346,4.688-2.346S244.451,18.641,244.451,19.937Z" transform="translate(-234.528 -17.152)" fill="#ff4343"/>
      <path id="Path_792" data-name="Path 792" d="M237.423,21.441a1.363,1.363,0,0,1-.042-2.545,6.914,6.914,0,0,1,4.524-.582c.672.16-.038.783-.833.841a6.376,6.376,0,0,0-1.727.355c-.608.266-.843.668-.823.873C238.559,20.759,237.8,21.429,237.423,21.441Z" transform="translate(-235.307 -17.464)" fill="#ed2b2b"/>
      <path id="Path_793" data-name="Path 793" d="M241.01,21.638c-.483.254-1.225.921-.4,1.163a6.951,6.951,0,0,0,4.814-.381c1.274-.6,1.576-1.593.834-2.289-.54-.506-1.075-.55-1.378-.353-.7.456-.085,1.265-1.45,1.534A12.164,12.164,0,0,0,241.01,21.638Z" transform="translate(-237.315 -18.273)" fill="#ed2b2b"/>
      <path id="Path_794" data-name="Path 794" d="M245.948,19.2s.364-.475-.076-.465C245.582,18.744,245.948,19.2,245.948,19.2Z" transform="translate(-240.292 -17.77)" fill="#ff6969"/>
      <path id="Path_795" data-name="Path 795" d="M244.457,19.25s0-.6-.471-.53C243.676,18.769,244.457,19.25,244.457,19.25Z" transform="translate(-239.296 -17.758)" fill="#ff6969"/>
      <path id="Path_796" data-name="Path 796" d="M242.743,19.471s-.305-.548-.646-.44S242.743,19.471,242.743,19.471Z" transform="translate(-238.277 -17.921)" fill="#ff6969"/>
      <path id="Path_797" data-name="Path 797" d="M240.951,20s-.361-.652-.831-.458S240.951,20,240.951,20Z" transform="translate(-237.195 -18.187)" fill="#ff6969"/>
      <path id="Path_798" data-name="Path 798" d="M239.5,20.906s-.573-.682-1.1-.344C238.053,20.787,239.5,20.906,239.5,20.906Z" transform="translate(-236.294 -18.704)" fill="#ff6969"/>
      <path id="Path_799" data-name="Path 799" d="M238.772,22.1s-.84-.29-1.124-.088S238.174,22.494,238.772,22.1Z" transform="translate(-235.885 -19.496)" fill="#ff6969"/>
      <path id="Path_800" data-name="Path 800" d="M238.938,23.235a2.14,2.14,0,0,0-.869.214c-.138.094,0,.323.278.27A.75.75,0,0,0,238.938,23.235Z" transform="translate(-236.114 -20.196)" fill="#ff6969"/>
      <path id="Path_801" data-name="Path 801" d="M250.255,20.686a.919.919,0,0,1,.6-.219c.341.019.5.239.1.268A2.439,2.439,0,0,1,250.255,20.686Z" transform="translate(-242.716 -18.703)" fill="#ff6969"/>
      <path id="Path_802" data-name="Path 802" d="M242.012,24.223a1.9,1.9,0,0,0-.531.44c-.113.192.327.391.462.042S242.012,24.223,242.012,24.223Z" transform="translate(-237.974 -20.729)" fill="#ff6969"/>
      <path id="Path_803" data-name="Path 803" d="M243.838,24.223a.722.722,0,0,0-.148.483c.014.3.4.369.374,0A.585.585,0,0,0,243.838,24.223Z" transform="translate(-239.175 -20.729)" fill="#ff6969"/>
      <path id="Path_804" data-name="Path 804" d="M245.463,24.056a2.321,2.321,0,0,0,.085.56c.078.241.639.369.411-.057A.959.959,0,0,0,245.463,24.056Z" transform="translate(-240.131 -20.639)" fill="#ff6969"/>
      <path id="Path_805" data-name="Path 805" d="M247.207,23.931a1.982,1.982,0,0,0,.453.617c.3.263.611.064.334-.234A1.586,1.586,0,0,0,247.207,23.931Z" transform="translate(-241.072 -20.572)" fill="#ff6969"/>
      <path id="Path_806" data-name="Path 806" d="M248.73,23.356a2.711,2.711,0,0,0,.653.563c.355.2.71.007.284-.241A2.945,2.945,0,0,0,248.73,23.356Z" transform="translate(-241.893 -20.262)" fill="#ff6969"/>
      <path id="Path_807" data-name="Path 807" d="M249.855,22.483a3.407,3.407,0,0,0,.979.467c.376.059.618-.341.192-.412A8.352,8.352,0,0,0,249.855,22.483Z" transform="translate(-242.5 -19.79)" fill="#ff6969"/>
      <path id="Path_808" data-name="Path 808" d="M250.369,21.631a2.579,2.579,0,0,1,.814-.126c.305.035.568.241.241.256A6.629,6.629,0,0,1,250.369,21.631Z" transform="translate(-242.777 -19.261)" fill="#ff6969"/>
    </g>
    <g id="Group_185" data-name="Group 185" transform="translate(233.969 16.36)">
      <rect id="Rectangle_53" data-name="Rectangle 53" width="10.468" height="0.565" transform="translate(0 2.756)" fill="#ed2b2b"/>
      <path id="Path_809" data-name="Path 809" d="M280.372,23.122c0,1.537-2.343,2.784-5.234,2.784S269.9,24.66,269.9,23.122s2.344-2.784,5.234-2.784S280.372,21.585,280.372,23.122Z" transform="translate(-269.904 -19.9)" fill="#ed2b2b"/>
      <path id="Path_810" data-name="Path 810" d="M280.372,22.171c0,1.537-2.343,2.784-5.234,2.784s-5.234-1.247-5.234-2.784,2.344-2.784,5.234-2.784S280.372,20.634,280.372,22.171Z" transform="translate(-269.904 -19.387)" fill="#ff6969"/>
      <path id="Path_811" data-name="Path 811" d="M280.466,22.684c0,1.3-2.1,2.346-4.688,2.346s-4.688-1.05-4.688-2.346,2.1-2.346,4.688-2.346S280.466,21.388,280.466,22.684Z" transform="translate(-270.543 -19.9)" fill="#ff4343"/>
      <path id="Path_812" data-name="Path 812" d="M273.438,24.189a1.363,1.363,0,0,1-.043-2.545,6.915,6.915,0,0,1,4.524-.582c.672.16-.038.783-.833.841a6.385,6.385,0,0,0-1.726.355c-.608.266-.843.668-.823.873C274.573,23.507,273.819,24.177,273.438,24.189Z" transform="translate(-271.322 -20.212)" fill="#ed2b2b"/>
      <path id="Path_813" data-name="Path 813" d="M277.024,24.386c-.483.254-1.224.921-.4,1.163a6.952,6.952,0,0,0,4.813-.381c1.274-.6,1.577-1.593.834-2.29-.539-.506-1.075-.549-1.377-.353-.7.456-.085,1.265-1.451,1.534A12.135,12.135,0,0,0,277.024,24.386Z" transform="translate(-273.329 -21.021)" fill="#ed2b2b"/>
      <path id="Path_814" data-name="Path 814" d="M281.962,21.95s.364-.475-.076-.465C281.6,21.492,281.962,21.95,281.962,21.95Z" transform="translate(-276.306 -20.518)" fill="#ff6969"/>
      <path id="Path_815" data-name="Path 815" d="M280.471,22s0-.6-.471-.53C279.69,21.517,280.471,22,280.471,22Z" transform="translate(-275.31 -20.506)" fill="#ff6969"/>
      <path id="Path_816" data-name="Path 816" d="M278.757,22.218s-.3-.548-.646-.44S278.757,22.218,278.757,22.218Z" transform="translate(-274.292 -20.669)" fill="#ff6969"/>
      <path id="Path_817" data-name="Path 817" d="M276.966,22.751s-.361-.653-.831-.458S276.966,22.751,276.966,22.751Z" transform="translate(-273.21 -20.935)" fill="#ff6969"/>
      <path id="Path_818" data-name="Path 818" d="M275.515,23.654s-.573-.682-1.1-.345C274.067,23.535,275.515,23.654,275.515,23.654Z" transform="translate(-272.309 -21.452)" fill="#ff6969"/>
      <path id="Path_819" data-name="Path 819" d="M274.787,24.845s-.84-.29-1.125-.088S274.189,25.241,274.787,24.845Z" transform="translate(-271.9 -22.244)" fill="#ff6969"/>
      <path id="Path_820" data-name="Path 820" d="M274.952,25.983a2.137,2.137,0,0,0-.869.214c-.138.094,0,.323.277.27A.749.749,0,0,0,274.952,25.983Z" transform="translate(-272.129 -22.944)" fill="#ff6969"/>
      <path id="Path_821" data-name="Path 821" d="M286.27,23.434a.92.92,0,0,1,.6-.219c.34.019.5.239.1.268A2.426,2.426,0,0,1,286.27,23.434Z" transform="translate(-278.73 -21.451)" fill="#ff6969"/>
      <path id="Path_822" data-name="Path 822" d="M278.026,26.971a1.891,1.891,0,0,0-.531.44c-.114.192.327.391.462.043S278.026,26.971,278.026,26.971Z" transform="translate(-273.988 -23.477)" fill="#ff6969"/>
      <path id="Path_823" data-name="Path 823" d="M279.852,26.971a.721.721,0,0,0-.148.483c.014.3.4.369.375,0A.586.586,0,0,0,279.852,26.971Z" transform="translate(-275.189 -23.477)" fill="#ff6969"/>
      <path id="Path_824" data-name="Path 824" d="M281.477,26.8a2.35,2.35,0,0,0,.085.56c.078.241.639.369.412-.057A.959.959,0,0,0,281.477,26.8Z" transform="translate(-276.145 -23.387)" fill="#ff6969"/>
      <path id="Path_825" data-name="Path 825" d="M283.221,26.678a1.992,1.992,0,0,0,.453.618c.3.263.61.064.334-.234A1.59,1.59,0,0,0,283.221,26.678Z" transform="translate(-277.086 -23.319)" fill="#ff6969"/>
      <path id="Path_826" data-name="Path 826" d="M284.744,26.1a2.708,2.708,0,0,0,.653.563c.355.2.71.007.284-.241A2.948,2.948,0,0,0,284.744,26.1Z" transform="translate(-277.907 -23.009)" fill="#ff6969"/>
      <path id="Path_827" data-name="Path 827" d="M285.869,25.231a3.406,3.406,0,0,0,.98.467c.376.059.618-.341.192-.412A8.361,8.361,0,0,0,285.869,25.231Z" transform="translate(-278.514 -22.538)" fill="#ff6969"/>
      <path id="Path_828" data-name="Path 828" d="M286.384,24.379a2.576,2.576,0,0,1,.814-.126c.305.035.568.241.241.256A6.629,6.629,0,0,1,286.384,24.379Z" transform="translate(-278.792 -22.009)" fill="#ff6969"/>
    </g>
    <g id="Group_186" data-name="Group 186" transform="translate(241.261 26.214)">
      <rect id="Rectangle_54" data-name="Rectangle 54" width="10.468" height="0.565" transform="translate(0 2.756)" fill="#ed2b2b"/>
      <path id="Path_829" data-name="Path 829" d="M296.2,44.51c0,1.538-2.344,2.784-5.234,2.784s-5.234-1.246-5.234-2.784,2.343-2.784,5.234-2.784S296.2,42.973,296.2,44.51Z" transform="translate(-285.731 -41.288)" fill="#ed2b2b"/>
      <path id="Path_830" data-name="Path 830" d="M296.2,43.559c0,1.538-2.344,2.784-5.234,2.784s-5.234-1.246-5.234-2.784,2.343-2.784,5.234-2.784S296.2,42.022,296.2,43.559Z" transform="translate(-285.731 -40.775)" fill="#ff6969"/>
      <path id="Path_831" data-name="Path 831" d="M296.292,44.072c0,1.3-2.1,2.346-4.688,2.346s-4.688-1.05-4.688-2.346,2.1-2.346,4.688-2.346S296.292,42.776,296.292,44.072Z" transform="translate(-286.369 -41.288)" fill="#ff4343"/>
      <path id="Path_832" data-name="Path 832" d="M289.264,45.577a1.363,1.363,0,0,1-.043-2.545,6.916,6.916,0,0,1,4.525-.582c.672.16-.038.783-.833.841a6.376,6.376,0,0,0-1.727.355c-.608.266-.843.667-.823.873C290.4,44.9,289.645,45.565,289.264,45.577Z" transform="translate(-287.148 -41.6)" fill="#ed2b2b"/>
      <path id="Path_833" data-name="Path 833" d="M292.851,45.774c-.483.254-1.225.921-.4,1.163a6.951,6.951,0,0,0,4.814-.381c1.274-.6,1.577-1.593.833-2.289-.539-.506-1.075-.55-1.377-.353-.7.456-.085,1.266-1.45,1.535A12.133,12.133,0,0,0,292.851,45.774Z" transform="translate(-289.156 -42.409)" fill="#ed2b2b"/>
      <path id="Path_834" data-name="Path 834" d="M297.788,43.338s.365-.475-.076-.465C297.423,42.88,297.788,43.338,297.788,43.338Z" transform="translate(-292.132 -41.906)" fill="#ff6969"/>
      <path id="Path_835" data-name="Path 835" d="M296.3,43.386s0-.6-.471-.53C295.517,42.905,296.3,43.386,296.3,43.386Z" transform="translate(-291.137 -41.894)" fill="#ff6969"/>
      <path id="Path_836" data-name="Path 836" d="M294.584,43.607s-.305-.549-.646-.44S294.584,43.607,294.584,43.607Z" transform="translate(-290.118 -42.058)" fill="#ff6969"/>
      <path id="Path_837" data-name="Path 837" d="M292.792,44.139s-.361-.653-.831-.458S292.792,44.139,292.792,44.139Z" transform="translate(-289.036 -42.323)" fill="#ff6969"/>
      <path id="Path_838" data-name="Path 838" d="M291.342,45.042s-.573-.682-1.1-.344C289.894,44.923,291.342,45.042,291.342,45.042Z" transform="translate(-288.135 -42.84)" fill="#ff6969"/>
      <path id="Path_839" data-name="Path 839" d="M290.613,46.233s-.84-.289-1.124-.088S290.015,46.629,290.613,46.233Z" transform="translate(-287.726 -43.633)" fill="#ff6969"/>
      <path id="Path_840" data-name="Path 840" d="M290.779,47.372a2.136,2.136,0,0,0-.869.213c-.138.094,0,.324.278.27A.749.749,0,0,0,290.779,47.372Z" transform="translate(-287.955 -44.333)" fill="#ff6969"/>
      <path id="Path_841" data-name="Path 841" d="M302.1,44.822a.919.919,0,0,1,.6-.219c.341.019.5.239.1.268A2.417,2.417,0,0,1,302.1,44.822Z" transform="translate(-294.557 -42.839)" fill="#ff6969"/>
      <path id="Path_842" data-name="Path 842" d="M293.853,48.359a1.9,1.9,0,0,0-.531.44c-.113.192.327.391.462.042S293.853,48.359,293.853,48.359Z" transform="translate(-289.814 -44.865)" fill="#ff6969"/>
      <path id="Path_843" data-name="Path 843" d="M295.679,48.359a.722.722,0,0,0-.148.483c.014.3.4.369.374,0A.585.585,0,0,0,295.679,48.359Z" transform="translate(-291.016 -44.865)" fill="#ff6969"/>
      <path id="Path_844" data-name="Path 844" d="M297.3,48.192a2.322,2.322,0,0,0,.085.56c.078.241.639.369.411-.057A.959.959,0,0,0,297.3,48.192Z" transform="translate(-291.972 -44.775)" fill="#ff6969"/>
      <path id="Path_845" data-name="Path 845" d="M299.048,48.066a1.987,1.987,0,0,0,.453.618c.3.263.611.064.334-.234A1.589,1.589,0,0,0,299.048,48.066Z" transform="translate(-292.913 -44.707)" fill="#ff6969"/>
      <path id="Path_846" data-name="Path 846" d="M300.571,47.492a2.71,2.71,0,0,0,.653.563c.355.2.71.007.284-.241A2.945,2.945,0,0,0,300.571,47.492Z" transform="translate(-293.734 -44.398)" fill="#ff6969"/>
      <path id="Path_847" data-name="Path 847" d="M301.7,46.619a3.408,3.408,0,0,0,.979.467c.376.059.618-.341.192-.412A8.354,8.354,0,0,0,301.7,46.619Z" transform="translate(-294.341 -43.926)" fill="#ff6969"/>
      <path id="Path_848" data-name="Path 848" d="M302.21,45.767a2.579,2.579,0,0,1,.814-.126c.305.035.568.241.241.256A6.629,6.629,0,0,1,302.21,45.767Z" transform="translate(-294.618 -43.397)" fill="#ff6969"/>
    </g>
    <g id="Group_187" data-name="Group 187" transform="translate(222.893 25.754)">
      <rect id="Rectangle_55" data-name="Rectangle 55" width="10.468" height="0.565" transform="translate(0 2.756)" fill="#ed2b2b"/>
      <path id="Path_849" data-name="Path 849" d="M256.329,43.513c0,1.538-2.344,2.784-5.234,2.784s-5.234-1.247-5.234-2.784,2.343-2.784,5.234-2.784S256.329,41.976,256.329,43.513Z" transform="translate(-245.861 -40.291)" fill="#ed2b2b"/>
      <path id="Path_850" data-name="Path 850" d="M256.329,42.562c0,1.538-2.344,2.784-5.234,2.784s-5.234-1.247-5.234-2.784,2.343-2.784,5.234-2.784S256.329,41.025,256.329,42.562Z" transform="translate(-245.861 -39.778)" fill="#ff6969"/>
      <ellipse id="Ellipse_32" data-name="Ellipse 32" cx="4.688" cy="2.346" rx="4.688" ry="2.346" transform="translate(0.546 0.438)" fill="#ff4343"/>
      <path id="Path_851" data-name="Path 851" d="M249.394,44.579a1.364,1.364,0,0,1-.042-2.546,6.918,6.918,0,0,1,4.524-.582c.672.16-.038.783-.833.842a6.373,6.373,0,0,0-1.727.355c-.608.266-.843.668-.823.873C250.53,43.9,249.775,44.567,249.394,44.579Z" transform="translate(-247.278 -40.603)" fill="#ed2b2b"/>
      <path id="Path_852" data-name="Path 852" d="M252.981,44.776c-.483.254-1.225.921-.4,1.163a6.951,6.951,0,0,0,4.814-.381c1.274-.6,1.577-1.593.834-2.289-.54-.506-1.075-.55-1.378-.353-.7.456-.085,1.266-1.45,1.535A12.171,12.171,0,0,0,252.981,44.776Z" transform="translate(-249.286 -41.412)" fill="#ed2b2b"/>
      <path id="Path_853" data-name="Path 853" d="M257.919,42.34s.364-.475-.076-.464C257.553,41.883,257.919,42.34,257.919,42.34Z" transform="translate(-252.263 -40.909)" fill="#ff6969"/>
      <path id="Path_854" data-name="Path 854" d="M256.428,42.389s0-.6-.471-.529C255.647,41.908,256.428,42.389,256.428,42.389Z" transform="translate(-251.267 -40.897)" fill="#ff6969"/>
      <path id="Path_855" data-name="Path 855" d="M254.714,42.609s-.305-.549-.646-.44S254.714,42.609,254.714,42.609Z" transform="translate(-250.248 -41.06)" fill="#ff6969"/>
      <path id="Path_856" data-name="Path 856" d="M252.922,43.142s-.361-.653-.831-.458S252.922,43.142,252.922,43.142Z" transform="translate(-249.166 -41.326)" fill="#ff6969"/>
      <path id="Path_857" data-name="Path 857" d="M251.472,44.045s-.573-.682-1.1-.345C250.024,43.925,251.472,44.045,251.472,44.045Z" transform="translate(-248.265 -41.843)" fill="#ff6969"/>
      <path id="Path_858" data-name="Path 858" d="M250.743,45.235s-.84-.29-1.124-.088S250.145,45.632,250.743,45.235Z" transform="translate(-247.856 -42.635)" fill="#ff6969"/>
      <path id="Path_859" data-name="Path 859" d="M250.909,46.374a2.132,2.132,0,0,0-.869.214c-.138.094,0,.323.278.27A.75.75,0,0,0,250.909,46.374Z" transform="translate(-248.085 -43.335)" fill="#ff6969"/>
      <path id="Path_860" data-name="Path 860" d="M262.226,43.825a.919.919,0,0,1,.6-.219c.341.019.5.239.1.267A2.42,2.42,0,0,1,262.226,43.825Z" transform="translate(-254.687 -41.842)" fill="#ff6969"/>
      <path id="Path_861" data-name="Path 861" d="M253.983,47.362a1.9,1.9,0,0,0-.531.44c-.113.192.327.391.462.043S253.983,47.362,253.983,47.362Z" transform="translate(-249.944 -43.868)" fill="#ff6969"/>
      <path id="Path_862" data-name="Path 862" d="M255.809,47.362a.722.722,0,0,0-.148.483c.014.3.4.369.374,0A.584.584,0,0,0,255.809,47.362Z" transform="translate(-251.146 -43.868)" fill="#ff6969"/>
      <path id="Path_863" data-name="Path 863" d="M257.434,47.2a2.324,2.324,0,0,0,.085.56c.078.241.639.369.412-.057A.961.961,0,0,0,257.434,47.2Z" transform="translate(-252.102 -43.778)" fill="#ff6969"/>
      <path id="Path_864" data-name="Path 864" d="M259.178,47.069a1.987,1.987,0,0,0,.453.618c.3.263.611.064.334-.234A1.591,1.591,0,0,0,259.178,47.069Z" transform="translate(-253.043 -43.71)" fill="#ff6969"/>
      <path id="Path_865" data-name="Path 865" d="M260.7,46.494a2.7,2.7,0,0,0,.653.563c.355.2.71.007.284-.241A2.958,2.958,0,0,0,260.7,46.494Z" transform="translate(-253.864 -43.4)" fill="#ff6969"/>
      <path id="Path_866" data-name="Path 866" d="M261.826,45.622a3.4,3.4,0,0,0,.979.467c.376.059.618-.34.192-.411A8.353,8.353,0,0,0,261.826,45.622Z" transform="translate(-254.471 -42.929)" fill="#ff6969"/>
      <path id="Path_867" data-name="Path 867" d="M262.34,44.77a2.579,2.579,0,0,1,.814-.126c.305.035.568.241.241.255A6.653,6.653,0,0,1,262.34,44.77Z" transform="translate(-254.748 -42.4)" fill="#ff6969"/>
    </g>
    <g id="Group_188" data-name="Group 188" transform="translate(235.047 30.169)">
      <rect id="Rectangle_56" data-name="Rectangle 56" width="9.209" height="0.497" transform="translate(0 2.425)" fill="#5e8e11"/>
      <path id="Path_868" data-name="Path 868" d="M281.453,52.646c0,1.353-2.062,2.449-4.6,2.449s-4.6-1.1-4.6-2.449,2.062-2.449,4.6-2.449S281.453,51.293,281.453,52.646Z" transform="translate(-272.244 -49.811)" fill="#5e8e11"/>
      <path id="Path_869" data-name="Path 869" d="M281.453,51.809c0,1.353-2.062,2.45-4.6,2.45s-4.6-1.1-4.6-2.45,2.062-2.449,4.6-2.449S281.453,50.456,281.453,51.809Z" transform="translate(-272.244 -49.36)" fill="#bed134"/>
      <path id="Path_870" data-name="Path 870" d="M281.535,52.26c0,1.14-1.846,2.064-4.124,2.064s-4.125-.924-4.125-2.064,1.847-2.063,4.125-2.063S281.535,51.121,281.535,52.26Z" transform="translate(-272.806 -49.811)" fill="#71aa21"/>
      <path id="Path_871" data-name="Path 871" d="M277.995,53.014a2.677,2.677,0,0,0-2.018-1.08c-1.531.119-1.325.665-.918,1.08C275.439,53.4,276.766,53.346,277.995,53.014Z" transform="translate(-273.604 -50.745)" fill="#5e8e11"/>
      <path id="Path_872" data-name="Path 872" d="M282.529,53.157a3.912,3.912,0,0,1,2.2-.925c1.184-.006,1.251.522.854.945C285.086,53.7,283.758,53.49,282.529,53.157Z" transform="translate(-277.791 -50.909)" fill="#5e8e11"/>
      <path id="Path_873" data-name="Path 873" d="M278.97,54.676s-1.681.4-2.187.582-.065.889,1,.9C279.162,56.171,278.97,54.676,278.97,54.676Z" transform="translate(-274.579 -52.227)" fill="#5e8e11"/>
      <path id="Path_874" data-name="Path 874" d="M282.355,54.676a19.207,19.207,0,0,1,2.187.582c.611.273-.239.889-1.3.9C281.859,56.171,282.355,54.676,282.355,54.676Z" transform="translate(-277.65 -52.227)" fill="#5e8e11"/>
      <path id="Path_875" data-name="Path 875" d="M281.194,52.116a7.931,7.931,0,0,1-.857-.865c-.154-.241.189-.574.99-.579,1.106-.006,1.2.318.829.722A4.219,4.219,0,0,1,281.194,52.116Z" transform="translate(-276.589 -50.067)" fill="#5e8e11"/>
    </g>
    <path id="Path_876" data-name="Path 876" d="M238.105,33.022a11.089,11.089,0,0,0-.237,2.2c.237,1.525,1.984,1.2,1.984,1.2A35.67,35.67,0,0,0,238.105,33.022Z" transform="translate(-18.65 -10.38)" fill="#71aa21"/>
    <g id="Group_189" data-name="Group 189" transform="translate(210.727 21.361)">
      <path id="Path_877" data-name="Path 877" d="M223.811,32.379h0s0-.006,0-.008a.629.629,0,0,0,0-.147,2.2,2.2,0,0,0-1.684-1.891,2.028,2.028,0,0,0-2.607,1.275,3.586,3.586,0,0,0-.06.669,1.586,1.586,0,0,0,.268.471,3.4,3.4,0,0,0,2.975.563C223.379,33.131,223.775,32.771,223.811,32.379Z" transform="translate(-219.452 -30.242)" fill="#344144"/>
      <path id="Path_878" data-name="Path 878" d="M225.174,31.932c-.079.294-.547.423-1.044.289s-.837-.481-.758-.775.547-.423,1.044-.289S225.253,31.639,225.174,31.932Z" transform="translate(-221.56 -30.707)" fill="#fff" opacity="0.5"/>
    </g>
    <g id="Group_190" data-name="Group 190" transform="translate(237.12 22.642)">
      <path id="Path_879" data-name="Path 879" d="M281.1,35.159h0s0-.006,0-.008a.627.627,0,0,0,0-.147,2.2,2.2,0,0,0-1.684-1.891,2.029,2.029,0,0,0-2.608,1.275,3.624,3.624,0,0,0-.06.669,1.591,1.591,0,0,0,.268.471,3.4,3.4,0,0,0,2.975.563C280.671,35.91,281.066,35.55,281.1,35.159Z" transform="translate(-276.744 -33.022)" fill="#344144"/>
      <path id="Path_880" data-name="Path 880" d="M282.465,34.712c-.079.294-.547.423-1.044.289s-.837-.481-.758-.775.547-.423,1.044-.289S282.544,34.418,282.465,34.712Z" transform="translate(-278.851 -33.487)" fill="#fff" opacity="0.5"/>
    </g>
    <g id="Group_191" data-name="Group 191" transform="translate(247.026 28.219)">
      <path id="Path_881" data-name="Path 881" d="M302.6,47.265h0s0-.006,0-.008a.627.627,0,0,0,0-.147,2.2,2.2,0,0,0-1.684-1.891,2.029,2.029,0,0,0-2.607,1.275,3.593,3.593,0,0,0-.06.669,1.586,1.586,0,0,0,.268.471,3.4,3.4,0,0,0,2.975.563C302.172,48.016,302.568,47.656,302.6,47.265Z" transform="translate(-298.245 -45.128)" fill="#344144"/>
      <path id="Path_882" data-name="Path 882" d="M303.967,46.818c-.079.294-.547.423-1.044.289s-.837-.481-.758-.774.547-.423,1.044-.289S304.046,46.524,303.967,46.818Z" transform="translate(-300.353 -45.593)" fill="#fff" opacity="0.5"/>
    </g>
    <g id="Group_192" data-name="Group 192" transform="translate(246.109 23.683)">
      <path id="Path_883" data-name="Path 883" d="M296.258,37.418h0a.047.047,0,0,0,0-.008.657.657,0,0,1,.005-.147,2.2,2.2,0,0,1,1.684-1.891,2.029,2.029,0,0,1,2.608,1.275,3.629,3.629,0,0,1,.06.669,1.6,1.6,0,0,1-.268.471,3.4,3.4,0,0,1-2.975.563C296.689,38.169,296.294,37.809,296.258,37.418Z" transform="translate(-296.255 -35.281)" fill="#344144"/>
      <path id="Path_884" data-name="Path 884" d="M297.865,36.971c.079.294.547.423,1.044.289s.837-.481.758-.775-.547-.423-1.044-.289S297.785,36.677,297.865,36.971Z" transform="translate(-297.117 -35.746)" fill="#fff" opacity="0.5"/>
    </g>
    <g id="Group_193" data-name="Group 193" transform="translate(212.45 31.088)">
      <path id="Path_885" data-name="Path 885" d="M223.2,53.491h0a.045.045,0,0,1,0-.008.659.659,0,0,1,0-.147,2.2,2.2,0,0,1,1.684-1.89,2.028,2.028,0,0,1,2.607,1.275,3.542,3.542,0,0,1,.06.669,1.586,1.586,0,0,1-.267.471,3.4,3.4,0,0,1-2.976.563C223.627,54.243,223.231,53.883,223.2,53.491Z" transform="translate(-223.192 -51.354)" fill="#344144"/>
      <path id="Path_886" data-name="Path 886" d="M224.8,53.044c.079.293.547.423,1.044.289s.837-.481.757-.775-.547-.423-1.044-.289S224.723,52.75,224.8,53.044Z" transform="translate(-224.055 -51.819)" fill="#fff" opacity="0.5"/>
    </g>
    <g id="Group_194" data-name="Group 194" transform="translate(232.454 17.048)">
      <path id="Path_887" data-name="Path 887" d="M266.617,23.015h0a.045.045,0,0,1,0-.008.636.636,0,0,1,0-.147,2.2,2.2,0,0,1,1.684-1.89,2.028,2.028,0,0,1,2.607,1.274,3.555,3.555,0,0,1,.06.669,1.58,1.58,0,0,1-.268.471,3.4,3.4,0,0,1-2.975.563C267.049,23.767,266.653,23.407,266.617,23.015Z" transform="translate(-266.614 -20.878)" fill="#344144"/>
      <path id="Path_888" data-name="Path 888" d="M268.224,22.568c.079.294.547.423,1.044.289s.837-.481.758-.775-.547-.423-1.044-.289S268.144,22.274,268.224,22.568Z" transform="translate(-267.476 -21.343)" fill="#fff" opacity="0.5"/>
    </g>
    <g id="Group_195" data-name="Group 195" transform="translate(225.946 30.76)">
      <path id="Path_889" data-name="Path 889" d="M252.491,52.779h0v-.008a.656.656,0,0,1,.005-.147,2.2,2.2,0,0,1,1.684-1.891,2.028,2.028,0,0,1,2.607,1.275,3.59,3.59,0,0,1,.061.669,1.608,1.608,0,0,1-.268.471,3.4,3.4,0,0,1-2.976.564C252.923,53.531,252.528,53.171,252.491,52.779Z" transform="translate(-252.489 -50.643)" fill="#344144"/>
      <path id="Path_890" data-name="Path 890" d="M254.1,52.333c.079.294.547.423,1.044.289s.837-.481.757-.775-.547-.423-1.044-.289S254.019,52.039,254.1,52.333Z" transform="translate(-253.351 -51.108)" fill="#fff" opacity="0.5"/>
    </g>
    <g id="Group_196" data-name="Group 196" transform="translate(220.087 22.98)">
      <path id="Path_891" data-name="Path 891" d="M239.772,35.893h0a.045.045,0,0,1,0-.008.632.632,0,0,1,.005-.147,2.2,2.2,0,0,1,1.684-1.89,2.028,2.028,0,0,1,2.607,1.274,3.552,3.552,0,0,1,.06.669,1.585,1.585,0,0,1-.267.471,3.4,3.4,0,0,1-2.976.563C240.2,36.644,239.809,36.284,239.772,35.893Z" transform="translate(-239.77 -33.756)" fill="#344144"/>
      <path id="Path_892" data-name="Path 892" d="M241.38,35.446c.079.294.547.423,1.044.289s.837-.481.757-.775-.547-.423-1.044-.289S241.3,35.152,241.38,35.446Z" transform="translate(-240.632 -34.221)" fill="#fff" opacity="0.5"/>
    </g>
    <path id="Path_893" data-name="Path 893" d="M277.009,45.213s-1.348-1.29-2.243-.686a3.36,3.36,0,0,0-1.2,1.36S276.057,46.051,277.009,45.213Z" transform="translate(-37.909 -16.498)" fill="#71aa21"/>
    <path id="Path_894" data-name="Path 894" d="M230.925,36a2.291,2.291,0,0,0-1.317-1.33,2.233,2.233,0,0,0-2.557,1.487c-.213.529-.381.994.115,1.391a1.346,1.346,0,0,0,.867.22,5.29,5.29,0,0,1,1.415.321,1.446,1.446,0,0,0,1.623-.32C231.422,37.288,231.135,36.481,230.925,36Z" transform="translate(-12.711 -11.225)" fill="#ffe3a6"/>
    <path id="Path_895" data-name="Path 895" d="M237.741,24.117a2.368,2.368,0,0,0-2.218.439.841.841,0,0,0-.2,1.054,2.246,2.246,0,0,0,1.236.727,1.61,1.61,0,0,0,1.31-.178A1.211,1.211,0,0,0,237.741,24.117Z" transform="translate(-17.227 -5.504)" fill="#ffe3a6"/>
    <path id="Path_896" data-name="Path 896" d="M253.073,24.434a2.955,2.955,0,0,0-1.776.111c-.758.271-1.287,1.021-2.107,1.089a.366.366,0,0,0-.052.012,1.025,1.025,0,0,0-.92.232.417.417,0,0,0-.107.4c.255.891,1.824,1.645,2.684,1.616a8.63,8.63,0,0,0,2.069-.632,2,2,0,0,0,1.257-.889A1.382,1.382,0,0,0,253.073,24.434Z" transform="translate(-24.173 -5.7)" fill="#ffe3a6"/>
    <path id="Path_897" data-name="Path 897" d="M269.913,27.632c-.879-.822-2.836-.078-3.86.309-.541.2-1.049.556-.536,1.133a4.79,4.79,0,0,0,1.743.821c.52.208,1.007.526,1.462.088a6.2,6.2,0,0,1,.736-.69A1.874,1.874,0,0,0,270,28.8.9.9,0,0,0,269.913,27.632Z" transform="translate(-33.454 -7.273)" fill="#ffe3a6"/>
    <path id="Path_898" data-name="Path 898" d="M261.64,32.6c-.512-.351-.881-.644-1.23-.645a1.073,1.073,0,0,0-1.047.708c-.34,1.149,1.281,1.71,2.107,1.225C261.879,33.65,262.12,32.933,261.64,32.6Z" transform="translate(-30.225 -9.806)" fill="#ffe3a6"/>
    <path id="Path_899" data-name="Path 899" d="M240.986,48.857c-.682-.739-1.573-.05-2.309.249a1.693,1.693,0,0,0-.52-.331,13.29,13.29,0,0,1-2.018-.546c-.444-.253-.768-.638-1.316-.643a2.5,2.5,0,0,0-1.554,1.383.71.71,0,0,0,.459.629c.324.174.475.065.732.4a2.512,2.512,0,0,1,.264.633c.294.739.726,1.447,1.632,1.384a4.038,4.038,0,0,0,1.593-.7,6.9,6.9,0,0,0,.7-.416,3.323,3.323,0,0,0,1.578-.022C241.011,50.628,241.648,49.574,240.986,48.857Z" transform="translate(-16.177 -18.235)" fill="#ffe3a6"/>
    <path id="Path_900" data-name="Path 900" d="M241.215,42.347c-.5-.65-1.956-.787-2.393-.059-.519.865.346,1.4.7,1.586a1.665,1.665,0,0,0,1.383.239A1.149,1.149,0,0,0,241.215,42.347Z" transform="translate(-19.085 -15.113)" fill="#ffe3a6"/>
    <path id="Path_901" data-name="Path 901" d="M282.023,44.014a2.474,2.474,0,0,0-2.426.718,1.6,1.6,0,0,0,1.2,2.491c.985.163,3.019-.273,3.191-1.487C284.152,44.6,283.018,44.145,282.023,44.014Z" transform="translate(-41 -16.285)" fill="#ffe3a6"/>
    <path id="Path_902" data-name="Path 902" d="M289.424,33.915a4.782,4.782,0,0,0-2.178,1.3,1.19,1.19,0,0,0,.114,1.359c.733.8,2.347.46,2.979-.3A1.419,1.419,0,0,0,289.424,33.915Z" transform="translate(-45.202 -10.861)" fill="#ffe3a6"/>
    <path id="Path_903" data-name="Path 903" d="M288.586,30a1.179,1.179,0,0,0-.782-.649c-.29-.074-1.692.287-1.754.674-.133.822.754,1.3,1.447,1.31C288.235,31.35,288.942,30.788,288.586,30Z" transform="translate(-44.635 -8.396)" fill="#ffe3a6"/>
    <path id="Path_904" data-name="Path 904" d="M272.669,37.591c-.672.738.347,1.561,1.032,1.676.707.118,1.839-.249,1.836-1.141C275.534,37.269,273.014,37.213,272.669,37.591Z" transform="translate(-37.307 -12.724)" fill="#ffe3a6"/>
    <path id="Path_905" data-name="Path 905" d="M271.531,50.356c-.179-.886-1.042-.845-1.709-1.011-1.048-.26-1.667-1.322-2.793-1.263a6.364,6.364,0,0,0-2.946,1.26,1.182,1.182,0,0,0-.527,1.49c.346.712,2.842,1.268,3.381,1.283a9.5,9.5,0,0,0,3.833-.441A1.255,1.255,0,0,0,271.531,50.356Z" transform="translate(-32.452 -18.501)" fill="#ffe3a6"/>
    <path id="Path_906" data-name="Path 906" d="M250.8,37.955a1.814,1.814,0,0,0-1.819-1.118,1.967,1.967,0,0,0-1.074.367c-.477.35-.573.821-1.22.853-.387.019-.676-.134-1.022.132a.822.822,0,0,0-.309.776,3.408,3.408,0,0,0,1.7,1.581,4.556,4.556,0,0,0,3.1-.352A1.99,1.99,0,0,0,250.8,37.955Z" transform="translate(-22.691 -12.437)" fill="#ffe3a6"/>
    <path id="Path_907" data-name="Path 907" d="M217.046,38.637a.386.386,0,0,0,.17.42,1.132,1.132,0,0,0,1.159.189.856.856,0,0,0,.482-.819C218.784,37.559,217.337,37.58,217.046,38.637Z" transform="translate(-7.421 -12.961)" fill="#ffe3a6"/>
    <path id="Path_908" data-name="Path 908" d="M224.057,42.624a1.2,1.2,0,0,0-.533-.56c-.228-.157-1.315-.4-1.344.324a1.323,1.323,0,0,0,.949,1.082C223.627,43.6,224.226,43.173,224.057,42.624Z" transform="translate(-10.197 -15.165)" fill="#ffe3a6"/>
    <path id="Path_909" data-name="Path 909" d="M246.668,23.4a1.192,1.192,0,0,0-1.616.88.319.319,0,0,0,.223.393,1.306,1.306,0,0,0,1.558-.867A.363.363,0,0,0,246.668,23.4Z" transform="translate(-22.525 -5.14)" fill="#ffe3a6"/>
    <path id="Path_910" data-name="Path 910" d="M238.022,31.536a2.714,2.714,0,0,0-1.565.428c-.173.185-.345.683-.142.821a1.612,1.612,0,0,0,1.679.055.876.876,0,0,0,.5-.637A.667.667,0,0,0,238.022,31.536Z" transform="translate(-17.77 -9.569)" fill="#ffe3a6"/>
    <path id="Path_911" data-name="Path 911" d="M246.722,56.35a.924.924,0,0,0-1.09.2,2.307,2.307,0,0,0-.61.962.323.323,0,0,0,.166.29c.572.25,1.759.165,1.947-.574A.822.822,0,0,0,246.722,56.35Z" transform="translate(-22.515 -22.904)" fill="#ffe3a6"/>
    <path id="Path_912" data-name="Path 912" d="M294.267,44.325c-.14-.526-2.368-.08-2.422.4-.075.662.927.8,1.39.765C293.808,45.455,294.436,44.964,294.267,44.325Z" transform="translate(-47.765 -16.348)" fill="#ffe3a6"/>
    <path id="Path_913" data-name="Path 913" d="M230.222,36.105c-.341-.484-1.428.294-1.426.775,0,.388.288.533.628.594.43.078.866.183,1.18-.206C230.883,36.922,230.457,36.438,230.222,36.105Z" transform="translate(-13.765 -11.96)" fill="#fff" opacity="0.5"/>
    <path id="Path_914" data-name="Path 914" d="M255.294,25.7a1.86,1.86,0,0,0-1.862.16c-.026.008-.053.012-.079.021a3.422,3.422,0,0,0-.466.249c-.179.1-.4.1-.562.193a.341.341,0,0,0-.191.39c.132.615.868.284,1.151.041a1.71,1.71,0,0,1,1.454-.556c.25.056.4.089.6-.1A.254.254,0,0,0,255.294,25.7Z" transform="translate(-26.347 -6.333)" fill="#fff" opacity="0.5"/>
    <path id="Path_915" data-name="Path 915" d="M238.615,25.064a.749.749,0,0,0-1.217-.028.509.509,0,0,0-.031.082.8.8,0,0,0-.249.118.25.25,0,0,0-.05.387c.34.274.844.869,1.335.638A.789.789,0,0,0,238.615,25.064Z" transform="translate(-18.186 -5.911)" fill="#fff" opacity="0.5"/>
    <path id="Path_916" data-name="Path 916" d="M251.687,37.852a.707.707,0,0,0-.366.156.974.974,0,0,0-.5.186.678.678,0,0,0-.238.837c.105.174.254.176.412.26.107.058.188.174.3.234a.855.855,0,0,0,.99-.17C252.783,38.844,252.492,37.76,251.687,37.852Z" transform="translate(-25.476 -12.982)" fill="#fff" opacity="0.5"/>
    <path id="Path_917" data-name="Path 917" d="M248.689,41.41c-.087-.364-.51-.5-.831-.553a.316.316,0,0,0-.321.128c-.142.037-.215.28-.169.406a1.125,1.125,0,0,0,.732.587A.48.48,0,0,0,248.689,41.41Z" transform="translate(-23.774 -14.602)" fill="#fff" opacity="0.5"/>
    <path id="Path_918" data-name="Path 918" d="M237.736,49.892a.676.676,0,0,0-.381-.068c-.358-.288-1.105-.624-1.234-.071a.432.432,0,0,0,.32.488,2.649,2.649,0,0,0,.288.035c.058.059.067.283.117.365.275.455,1.051.512,1.128-.105A.62.62,0,0,0,237.736,49.892Z" transform="translate(-17.71 -19.243)" fill="#fff" opacity="0.5"/>
    <path id="Path_919" data-name="Path 919" d="M242.042,50.918a.386.386,0,0,0-.134.029c-.35-.034-.654.666-.756.888a.736.736,0,0,0-.063.746.626.626,0,0,0,.693.261,1.492,1.492,0,0,0,.98-1A.762.762,0,0,0,242.042,50.918Z" transform="translate(-20.351 -20.031)" fill="#fff" opacity="0.5"/>
    <path id="Path_920" data-name="Path 920" d="M247.064,50.658a.777.777,0,0,0-.465.2,1,1,0,0,0-.286.229.3.3,0,0,0,.059.461.745.745,0,0,0,1.126-.381A.416.416,0,0,0,247.064,50.658Z" transform="translate(-23.167 -19.891)" fill="#fff" opacity="0.5"/>
    <path id="Path_921" data-name="Path 921" d="M261.1,32.931c-.268.04-.428.4-.423.67a.514.514,0,0,0,.549.482.647.647,0,0,0,.633-.368A.775.775,0,0,0,261.1,32.931Z" transform="translate(-30.956 -10.328)" fill="#fff" opacity="0.5"/>
    <path id="Path_922" data-name="Path 922" d="M270.118,28.124a.757.757,0,0,0-.417-.067,1.163,1.163,0,0,0-.432.069c-.263.1-.387.331-.672.388-.369.074-1.066.105-.883.7.152.491.961.453,1.348.443a1.029,1.029,0,0,0,.737-.187.573.573,0,0,0,.176-.328.429.429,0,0,0,0-.226.241.241,0,0,0,0-.035l.142-.067A.4.4,0,0,0,270.118,28.124Z" transform="translate(-34.737 -7.699)" fill="#fff" opacity="0.5"/>
    <path id="Path_923" data-name="Path 923" d="M274.542,37.966a.471.471,0,0,0-.562.178c-.281.431.387.744.7.848a.635.635,0,0,0,.885-.586C275.521,37.89,274.929,37.87,274.542,37.966Z" transform="translate(-38.096 -13.022)" fill="#fff" opacity="0.5"/>
    <path id="Path_924" data-name="Path 924" d="M290.358,35.44a2.6,2.6,0,0,0-.669.334.687.687,0,0,0-.117.122c-.025.018-.052.032-.076.051-.233.185-.515.531-.222.8.251.234.636.088.886-.064a1.145,1.145,0,0,0,.594-.851C290.814,35.617,290.595,35.35,290.358,35.44Z" transform="translate(-46.314 -11.674)" fill="#fff" opacity="0.5"/>
    <path id="Path_925" data-name="Path 925" d="M270.836,50.494a3.364,3.364,0,0,0-1.468-.631,1.482,1.482,0,0,0-1.87,1,.386.386,0,0,0,.384.384c.855-.073,1.471.428,2.281.551.409.062,1.223.234,1.449-.26C271.861,51,271.2,50.7,270.836,50.494Z" transform="translate(-34.637 -19.423)" fill="#fff" opacity="0.5"/>
    <path id="Path_926" data-name="Path 926" d="M283.928,45.567c-.118-.259-.4-.283-.655-.293a1.767,1.767,0,0,0-.547.042,1.519,1.519,0,0,0-.283.018c-.229.039-.522.075-.611.328-.221.628.783.741,1.169.7S284.2,46.162,283.928,45.567Z" transform="translate(-42.35 -16.986)" fill="#fff" opacity="0.5"/>
    <path id="Path_927" data-name="Path 927" d="M293.869,44.762a.246.246,0,0,0-.313.178l-.015.041a.2.2,0,0,0,.088.216l.043.03a.257.257,0,0,0,.309-.04C294.053,45.109,294.275,44.919,293.869,44.762Z" transform="translate(-48.678 -16.703)" fill="#fff" opacity="0.5"/>
    <path id="Path_928" data-name="Path 928" d="M221.609,47.23a3.7,3.7,0,0,0-1.922,1.5,2.9,2.9,0,0,0-.494,1.937s2.041-.494,2.289-1.545A5.618,5.618,0,0,0,221.609,47.23Z" transform="translate(-8.575 -18.043)" fill="#71aa21"/>
    <path id="Path_929" data-name="Path 929" d="M213.529,44.544a1.459,1.459,0,0,0,1.866,1.214c1.6-.405,2.826-.7,2.826-.7a5.825,5.825,0,0,0-2.314-.586C214.746,44.477,213.529,44.544,213.529,44.544Z" transform="translate(-5.531 -16.555)" fill="#71aa21"/>
    <path id="Path_930" data-name="Path 930" d="M261.826,45.134a11.654,11.654,0,0,0,1.989,1.088c.847.309,2.943-.687,2.943-.687a4.816,4.816,0,0,0-2.478-.818A6.49,6.49,0,0,0,261.826,45.134Z" transform="translate(-31.578 -16.686)" fill="#71aa21"/>
    <path id="Path_931" data-name="Path 931" d="M253.882,45.464s.913-1.1,1.773-1.171,2.071-.211,2.071-.211a1.361,1.361,0,0,1-1.4,1.376A12.023,12.023,0,0,1,253.882,45.464Z" transform="translate(-27.294 -16.345)" fill="#71aa21"/>
    <path id="Path_932" data-name="Path 932" d="M267.051,58.627a1.611,1.611,0,0,0,1.166,1.772,3.43,3.43,0,0,0,2.381-.1,1.613,1.613,0,0,0-1.2-1.236A12.685,12.685,0,0,0,267.051,58.627Z" transform="translate(-34.39 -24.189)" fill="#71aa21"/>
    <path id="Path_933" data-name="Path 933" d="M253.837,16.709s-.821.581-1.713,1.29a5.228,5.228,0,0,0-1.36,2.093s2.784-.083,3.21-1.446S253.837,16.709,253.837,16.709Z" transform="translate(-25.612 -1.582)" fill="#71aa21"/>
    <path id="Path_934" data-name="Path 934" d="M232.651,20.462a1.623,1.623,0,0,0,1.817.506c1.246-.34,2.792-.662,2.792-.662a2.1,2.1,0,0,0-1.965-.615A22.869,22.869,0,0,0,232.651,20.462Z" transform="translate(-15.844 -3.165)" fill="#71aa21"/>
    <path id="Path_935" data-name="Path 935" d="M227.057,23.356s-.538.551,0,1.723,1.235,1.244,1.235,1.244.893-1.239.369-1.955A3.367,3.367,0,0,0,227.057,23.356Z" transform="translate(-12.698 -5.167)" fill="#71aa21"/>
    <path id="Path_936" data-name="Path 936" d="M283.682,22.626c-.174.065-1.957.757-2.327,1.483s-.837,1.681-.837,1.681a6.653,6.653,0,0,0,2.4-1.3A6.693,6.693,0,0,0,283.682,22.626Z" transform="translate(-41.659 -4.773)" fill="#71aa21"/>
    <path id="Path_937" data-name="Path 937" d="M277.419,21.8a1.929,1.929,0,0,0-.6,1.809,10.893,10.893,0,0,0,.639,1.706,8.615,8.615,0,0,0,.884-2.082C278.337,22.731,277.419,21.8,277.419,21.8Z" transform="translate(-39.63 -4.325)" fill="#71aa21"/>
    <path id="Path_938" data-name="Path 938" d="M294.324,49.407a3.815,3.815,0,0,0,.5,2.373A5.1,5.1,0,0,0,296.49,53a2.428,2.428,0,0,0-.338-2.4A2.568,2.568,0,0,0,294.324,49.407Z" transform="translate(-49.095 -19.217)" fill="#71aa21"/>
    <path id="Path_939" data-name="Path 939" d="M285.075,40.775a5.978,5.978,0,0,0,2.007,1.578,4.073,4.073,0,0,0,2.115-.469,8.018,8.018,0,0,0-1.683-.566C286.7,41.168,285.075,40.775,285.075,40.775Z" transform="translate(-44.117 -14.561)" fill="#71aa21"/>
    <path id="Path_940" data-name="Path 940" d="M257.895,33.3a8.443,8.443,0,0,1-1.068,1.487,6.521,6.521,0,0,1-1.382,1.126s1.943.553,2.45-.539A2.515,2.515,0,0,0,257.895,33.3Z" transform="translate(-28.137 -10.532)" fill="#71aa21"/>
    <path id="Path_941" data-name="Path 941" d="M229.037,44.6a.465.465,0,0,0-.684-.273c-.163.075-.6,1,.333.95C228.961,45.261,229.116,44.9,229.037,44.6Z" transform="translate(-13.393 -16.446)" fill="#ffe3a6"/>
    <path id="Path_942" data-name="Path 942" d="M243.181,22.516a.475.475,0,0,0-.773.136.448.448,0,0,0-.032.229.41.41,0,0,0,.037.469c.192.241.552.135.742-.058A.57.57,0,0,0,243.181,22.516Z" transform="translate(-21.058 -4.637)" fill="#ffe3a6"/>
    <path id="Path_943" data-name="Path 943" d="M279.539,30.186a.687.687,0,0,0-.461-.37.367.367,0,0,0-.46.249.306.306,0,0,0-.1.3.612.612,0,0,0,.785.4A.4.4,0,0,0,279.539,30.186Z" transform="translate(-40.578 -8.644)" fill="#ffe3a6"/>
    <path id="Path_944" data-name="Path 944" d="M262.582,23.538a.685.685,0,0,0-.461-.37.367.367,0,0,0-.46.249.305.305,0,0,0-.1.3.611.611,0,0,0,.784.4A.4.4,0,0,0,262.582,23.538Z" transform="translate(-31.434 -5.058)" fill="#ffe3a6"/>
    <path id="Path_945" data-name="Path 945" d="M275.572,32.826a.264.264,0,0,0-.3.11,1.121,1.121,0,0,0-.447.389.29.29,0,0,0,.248.433.837.837,0,0,0,.685-.332A.36.36,0,0,0,275.572,32.826Z" transform="translate(-38.566 -10.269)" fill="#ffe3a6"/>
    <path id="Path_946" data-name="Path 946" d="M254.525,60.779a.264.264,0,0,0-.3.11,1.124,1.124,0,0,0-.447.389.29.29,0,0,0,.248.433.838.838,0,0,0,.685-.332A.36.36,0,0,0,254.525,60.779Z" transform="translate(-27.215 -25.344)" fill="#ffe3a6"/>
    <path id="Path_947" data-name="Path 947" d="M260.695,48.506a.891.891,0,0,0-.249-.381.54.54,0,0,0-.264-.7.458.458,0,0,0-.53.069.409.409,0,0,0-.086.127.626.626,0,0,0-.365,1.2.9.9,0,0,0,.848-.168.716.716,0,0,0,.314.188A.272.272,0,0,0,260.695,48.506Z" transform="translate(-29.934 -18.12)" fill="#ffe3a6"/>
    <path id="Path_948" data-name="Path 948" d="M259.128,61.533a.591.591,0,0,0-.644.53.791.791,0,0,0-.082.3.345.345,0,0,0,.34.341c.419.016.645-.372.717-.736A.349.349,0,0,0,259.128,61.533Z" transform="translate(-29.731 -25.756)" fill="#ffe3a6"/>
    <path id="Path_949" data-name="Path 949" d="M304.178,41.568a.9.9,0,0,0-.5.111.377.377,0,0,0-.185.35,1.176,1.176,0,0,0-.111.085.293.293,0,0,0,.205.495,1.168,1.168,0,0,0,.849-.417A.37.37,0,0,0,304.178,41.568Z" transform="translate(-53.945 -14.988)" fill="#ffe3a6"/>
    <path id="Path_950" data-name="Path 950" d="M297.785,31.771a.335.335,0,0,0-.182.5c0,.008-.006.013-.006.022.013.473.782,1.025,1.056.435C298.875,32.25,298.259,31.622,297.785,31.771Z" transform="translate(-50.845 -9.693)" fill="#ffe3a6"/>
    <path id="Path_951" data-name="Path 951" d="M280.711,41.373a.763.763,0,0,0-.979.088.446.446,0,0,0-.234.605.631.631,0,0,0,.717.313.97.97,0,0,0,.647-.432A.426.426,0,0,0,280.711,41.373Z" transform="translate(-41.085 -14.812)" fill="#ffe3a6"/>
    <path id="Path_952" data-name="Path 952" d="M264.636,59.051a.762.762,0,0,0-.979.088.446.446,0,0,0-.234.605.63.63,0,0,0,.717.313.968.968,0,0,0,.647-.432A.426.426,0,0,0,264.636,59.051Z" transform="translate(-32.415 -24.345)" fill="#ffe3a6"/>
  </g>
</svg>
