<svg xmlns="http://www.w3.org/2000/svg" width="21.882" height="21.693" viewBox="0 0 21.882 21.693">
  <g id="Group_2522" data-name="Group 2522" transform="translate(-2.25 -2.25)" opacity="0.63">
    <path id="Path_1243" data-name="Path 1243" d="M22.889,11.1a1.182,1.182,0,0,1-.29-1.139,2.854,2.854,0,0,0-2.01-3.484,1.177,1.177,0,0,1-.826-.849,2.844,2.844,0,0,0-3.484-2.01A1.155,1.155,0,0,1,15.14,3.3a2.914,2.914,0,0,0-4.02,0,1.182,1.182,0,0,1-1.139.29A2.844,2.844,0,0,0,6.5,5.6a1.177,1.177,0,0,1-.849.826,2.877,2.877,0,0,0-2.01,3.506,1.155,1.155,0,0,1-.313,1.139,2.858,2.858,0,0,0,0,4.02,1.182,1.182,0,0,1,.29,1.139,2.766,2.766,0,0,0,.29,2.144A2.843,2.843,0,0,0,5.627,19.7a1.177,1.177,0,0,1,.826.849,2.843,2.843,0,0,0,1.318,1.72,2.779,2.779,0,0,0,2.144.29,1.142,1.142,0,0,1,1.139.313,2.858,2.858,0,0,0,4.02,0,1.182,1.182,0,0,1,1.139-.29,2.766,2.766,0,0,0,2.144-.29,2.843,2.843,0,0,0,1.318-1.72,1.177,1.177,0,0,1,.849-.826,2.843,2.843,0,0,0,1.72-1.318,2.88,2.88,0,0,0,.29-2.144,1.142,1.142,0,0,1,.313-1.139h0A2.858,2.858,0,0,0,22.889,11.1Zm-1.184,2.836h0a2.866,2.866,0,0,0-.737,2.747,1.13,1.13,0,0,1-.112.893,1.2,1.2,0,0,1-.715.558,2.854,2.854,0,0,0-2.01,2.01,1.168,1.168,0,0,1-.536.715,1.13,1.13,0,0,1-.893.112,2.838,2.838,0,0,0-2.747.737,1.214,1.214,0,0,1-1.675,0,2.859,2.859,0,0,0-2.01-.826,2.774,2.774,0,0,0-.737.089,1.13,1.13,0,0,1-.893-.112,1.2,1.2,0,0,1-.558-.715,2.854,2.854,0,0,0-2.01-2.01,1.168,1.168,0,0,1-.715-.536,1.13,1.13,0,0,1-.112-.893,2.838,2.838,0,0,0-.737-2.747,1.147,1.147,0,0,1-.335-.826,1.166,1.166,0,0,1,.357-.849,2.838,2.838,0,0,0,.737-2.747,1.164,1.164,0,0,1,.849-1.429A2.854,2.854,0,0,0,8.128,6.1a1.174,1.174,0,0,1,1.452-.826,2.838,2.838,0,0,0,2.747-.737,1.214,1.214,0,0,1,1.675,0,2.838,2.838,0,0,0,2.747.737,1.164,1.164,0,0,1,1.429.849,2.854,2.854,0,0,0,2.01,2.01,1.174,1.174,0,0,1,.826,1.452,2.838,2.838,0,0,0,.737,2.747A1.134,1.134,0,0,1,21.706,13.934Z" transform="translate(0 0)" fill="#f02756" stroke="#f02756" stroke-width="0.5"/>
    <path id="Path_1244" data-name="Path 1244" d="M40.738,33.926a.823.823,0,0,0-1.184,0l-5.628,5.628a.823.823,0,0,0,0,1.184.863.863,0,0,0,.6.246.9.9,0,0,0,.6-.246L40.76,35.11A.843.843,0,0,0,40.738,33.926Z" transform="translate(-24.213 -24.213)" fill="#f02756"/>
    <circle id="Ellipse_49" data-name="Ellipse 49" cx="1.362" cy="1.362" r="1.362" transform="translate(9.133 9.133)" fill="#f02756"/>
    <circle id="Ellipse_50" data-name="Ellipse 50" cx="1.362" cy="1.362" r="1.362" transform="translate(14.381 14.381)" fill="#f02756"/>
  </g>
</svg>
