<svg id="shop" xmlns="http://www.w3.org/2000/svg" width="19.187" height="19.187" viewBox="0 0 19.187 19.187">
  <g id="Group_87" data-name="Group 87" transform="translate(0 0)">
    <path id="Path_184" data-name="Path 184" d="M19.152,4.58,17.782.469A.685.685,0,0,0,17.131,0H2.056a.685.685,0,0,0-.65.469L.035,4.58a.7.7,0,0,0-.035.2v.7A3.412,3.412,0,0,0,1.37,8.208v8.923a2.056,2.056,0,0,0,2.056,2.056H15.761a2.056,2.056,0,0,0,2.056-2.056V8.208a3.412,3.412,0,0,0,1.37-2.726v-.7A.7.7,0,0,0,19.152,4.58ZM14.39,1.37h2.247l.914,2.741H14.39Zm-4.112,0H13.02V4.112H10.279Zm-4.112,0H8.908V4.112H6.167Zm-3.617,0H4.8V4.112H1.636Zm8.414,16.446H8.223V12.335h2.741v5.482Zm5.482-.685a.685.685,0,0,1-.685.685H12.335V11.649a.685.685,0,0,0-.685-.685H7.538a.685.685,0,0,0-.685.685v6.167H3.426a.685.685,0,0,1-.685-.685V8.84a3.387,3.387,0,0,0,2.741-.629,3.473,3.473,0,0,0,4.112,0,3.473,3.473,0,0,0,4.112,0,3.387,3.387,0,0,0,2.741.629v8.292Zm-.685-9.594a2.025,2.025,0,0,1-1.54-.711.685.685,0,0,0-1.032,0,2.067,2.067,0,0,1-3.08,0,.709.709,0,0,0-1-.03l-.03.03a2.067,2.067,0,0,1-3.08,0A.709.709,0,0,0,5,6.8l-.03.03a2.025,2.025,0,0,1-1.54.711A2.056,2.056,0,0,1,1.37,5.482H17.817A2.056,2.056,0,0,1,15.761,7.538Z" transform="translate(0 0)" fill="#bbb"/>
  </g>
</svg>
