<svg id="noun_Trash_3513304" xmlns="http://www.w3.org/2000/svg" width="17.588" height="19.325" viewBox="0 0 17.588 19.325">
  <g id="Group_251" data-name="Group 251" transform="translate(0)">
    <g id="Group_250" data-name="Group 250" transform="translate(0 0)">
      <path id="Path_1196" data-name="Path 1196" d="M195.075,273.58v.225a.8.8,0,0,1,.032.258v8.7a4,4,0,0,1-1.192,2.834,4.046,4.046,0,0,1-2.834,1.159h-6.055a4.046,4.046,0,0,1-2.834-1.159A4,4,0,0,1,181,282.759v-8.7a.8.8,0,0,1,.032-.258v-.258a.655.655,0,0,1,.644-.547h12.754A.659.659,0,0,1,195.075,273.58Zm-1.256,9.179v-8.471H182.288v8.471a2.7,2.7,0,0,0,.805,1.9,2.649,2.649,0,0,0,1.932.805h6.055a2.649,2.649,0,0,0,1.932-.805A2.7,2.7,0,0,0,193.819,282.759Z" transform="translate(-179.261 -267.428)" fill="#fff" fill-rule="evenodd"/>
      <path id="Path_1197" data-name="Path 1197" d="M131.928,156h7.73a4.927,4.927,0,0,1,3.285,1.224,5.036,5.036,0,0,1,1.643,3.092h0v.032a.669.669,0,0,1-.58.709H127.644a.646.646,0,0,1-.644-.644c0-.064,0-.1.032-.129a4.943,4.943,0,0,1,4.9-4.284Zm7.73,1.288h-7.73a3.721,3.721,0,0,0-2.416.9,3.812,3.812,0,0,0-1.063,1.578h14.687a3.811,3.811,0,0,0-1.063-1.578A3.721,3.721,0,0,0,139.658,157.288Z" transform="translate(-127 -154.196)" fill="#fff" fill-rule="evenodd"/>
      <path id="Path_1198" data-name="Path 1198" d="M255,352.644a.644.644,0,0,1,1.288,0v7.376a.644.644,0,1,1-1.288,0Z" transform="translate(-250.877 -343.884)" fill="#fff" fill-rule="evenodd"/>
      <path id="Path_1199" data-name="Path 1199" d="M380,352.644a.644.644,0,0,1,1.288,0v7.376a.644.644,0,1,1-1.288,0Z" transform="translate(-371.851 -343.884)" fill="#fff" fill-rule="evenodd"/>
      <path id="Path_1200" data-name="Path 1200" d="M505,352.644a.644.644,0,1,1,1.288,0v7.376a.644.644,0,1,1-1.288,0Z" transform="translate(-492.825 -343.884)" fill="#fff" fill-rule="evenodd"/>
      <path id="Path_1201" data-name="Path 1201" d="M353.546,100a1.549,1.549,0,0,1,1.1,2.641,1.555,1.555,0,0,1-2.19,0,1.546,1.546,0,0,1,1.1-2.641Zm.193,1.353a.322.322,0,1,0,.064.193A.458.458,0,0,0,353.739,101.353Z" transform="translate(-344.753 -100)" fill="#fff" fill-rule="evenodd"/>
    </g>
  </g>
</svg>
